<?xml version="1.0" encoding="utf-8" standalone="no"?>
<!DOCTYPE svg PUBLIC "-//W3C//DTD SVG 1.1//EN"
  "http://www.w3.org/Graphics/SVG/1.1/DTD/svg11.dtd">
<svg xmlns:xlink="http://www.w3.org/1999/xlink" width="864pt" height="360pt" viewBox="0 0 864 360" xmlns="http://www.w3.org/2000/svg" version="1.1">
 <metadata>
  <rdf:RDF xmlns:dc="http://purl.org/dc/elements/1.1/" xmlns:cc="http://creativecommons.org/ns#" xmlns:rdf="http://www.w3.org/1999/02/22-rdf-syntax-ns#">
   <cc:Work>
    <dc:type rdf:resource="http://purl.org/dc/dcmitype/StillImage"/>
    <dc:date>2026-04-13T20:25:23.006450</dc:date>
    <dc:format>image/svg+xml</dc:format>
    <dc:creator>
     <cc:Agent>
      <dc:title>Matplotlib v3.10.8, https://matplotlib.org/</dc:title>
     </cc:Agent>
    </dc:creator>
   </cc:Work>
  </rdf:RDF>
 </metadata>
 <defs>
  <style type="text/css">*{stroke-linejoin: round; stroke-linecap: butt}</style>
 </defs>
 <g id="figure_1">
  <g id="patch_1">
   <path d="M 0 360 
L 864 360 
L 864 0 
L 0 0 
L 0 360 
z
" style="fill: none; opacity: 0"/>
  </g>
  <g id="axes_1">
   <g id="patch_2">
    <path d="M 108 320.4 
L 777.6 320.4 
L 777.6 43.2 
L 108 43.2 
L 108 320.4 
z
" style="fill: none; opacity: 0"/>
   </g>
   <g id="matplotlib.axis_1">
    <g id="xtick_1">
     <g id="line2d_1">
      <path d="M 195.283864 320.4 
L 195.283864 43.2 
" clip-path="url(#p6066741aac)" style="fill: none; stroke-dasharray: 5.12,1.28,0.8,1.28; stroke-dashoffset: 0; stroke: #b0b0b0; stroke-width: 0.8"/>
     </g>
     <g id="line2d_2">
      <defs>
       <path id="mb6e3a8120a" d="M 0 0 
L 0 3.5 
" style="stroke: #a9a9a9; stroke-width: 0.8"/>
      </defs>
      <g>
       <use xlink:href="#mb6e3a8120a" x="195.283864" y="320.4" style="fill: #a9a9a9; stroke: #a9a9a9; stroke-width: 0.8"/>
      </g>
     </g>
     <g id="text_1">
      <!-- 2022 -->
      <g style="fill: #a9a9a9" transform="translate(182.558864 334.998438) scale(0.1 -0.1)">
       <defs>
        <path id="DejaVuSans-32" d="M 1228 531 
L 3431 531 
L 3431 0 
L 469 0 
L 469 531 
Q 828 903 1448 1529 
Q 2069 2156 2228 2338 
Q 2531 2678 2651 2914 
Q 2772 3150 2772 3378 
Q 2772 3750 2511 3984 
Q 2250 4219 1831 4219 
Q 1534 4219 1204 4116 
Q 875 4013 500 3803 
L 500 4441 
Q 881 4594 1212 4672 
Q 1544 4750 1819 4750 
Q 2544 4750 2975 4387 
Q 3406 4025 3406 3419 
Q 3406 3131 3298 2873 
Q 3191 2616 2906 2266 
Q 2828 2175 2409 1742 
Q 1991 1309 1228 531 
z
" transform="scale(0.015625)"/>
        <path id="DejaVuSans-30" d="M 2034 4250 
Q 1547 4250 1301 3770 
Q 1056 3291 1056 2328 
Q 1056 1369 1301 889 
Q 1547 409 2034 409 
Q 2525 409 2770 889 
Q 3016 1369 3016 2328 
Q 3016 3291 2770 3770 
Q 2525 4250 2034 4250 
z
M 2034 4750 
Q 2819 4750 3233 4129 
Q 3647 3509 3647 2328 
Q 3647 1150 3233 529 
Q 2819 -91 2034 -91 
Q 1250 -91 836 529 
Q 422 1150 422 2328 
Q 422 3509 836 4129 
Q 1250 4750 2034 4750 
z
" transform="scale(0.015625)"/>
       </defs>
       <use xlink:href="#DejaVuSans-32"/>
       <use xlink:href="#DejaVuSans-30" transform="translate(63.623047 0)"/>
       <use xlink:href="#DejaVuSans-32" transform="translate(127.246094 0)"/>
       <use xlink:href="#DejaVuSans-32" transform="translate(190.869141 0)"/>
      </g>
     </g>
    </g>
    <g id="xtick_2">
     <g id="line2d_3">
      <path d="M 324.161738 320.4 
L 324.161738 43.2 
" clip-path="url(#p6066741aac)" style="fill: none; stroke-dasharray: 5.12,1.28,0.8,1.28; stroke-dashoffset: 0; stroke: #b0b0b0; stroke-width: 0.8"/>
     </g>
     <g id="line2d_4">
      <g>
       <use xlink:href="#mb6e3a8120a" x="324.161738" y="320.4" style="fill: #a9a9a9; stroke: #a9a9a9; stroke-width: 0.8"/>
      </g>
     </g>
     <g id="text_2">
      <!-- 2023 -->
      <g style="fill: #a9a9a9" transform="translate(311.436738 334.998438) scale(0.1 -0.1)">
       <defs>
        <path id="DejaVuSans-33" d="M 2597 2516 
Q 3050 2419 3304 2112 
Q 3559 1806 3559 1356 
Q 3559 666 3084 287 
Q 2609 -91 1734 -91 
Q 1441 -91 1130 -33 
Q 819 25 488 141 
L 488 750 
Q 750 597 1062 519 
Q 1375 441 1716 441 
Q 2309 441 2620 675 
Q 2931 909 2931 1356 
Q 2931 1769 2642 2001 
Q 2353 2234 1838 2234 
L 1294 2234 
L 1294 2753 
L 1863 2753 
Q 2328 2753 2575 2939 
Q 2822 3125 2822 3475 
Q 2822 3834 2567 4026 
Q 2313 4219 1838 4219 
Q 1578 4219 1281 4162 
Q 984 4106 628 3988 
L 628 4550 
Q 988 4650 1302 4700 
Q 1616 4750 1894 4750 
Q 2613 4750 3031 4423 
Q 3450 4097 3450 3541 
Q 3450 3153 3228 2886 
Q 3006 2619 2597 2516 
z
" transform="scale(0.015625)"/>
       </defs>
       <use xlink:href="#DejaVuSans-32"/>
       <use xlink:href="#DejaVuSans-30" transform="translate(63.623047 0)"/>
       <use xlink:href="#DejaVuSans-32" transform="translate(127.246094 0)"/>
       <use xlink:href="#DejaVuSans-33" transform="translate(190.869141 0)"/>
      </g>
     </g>
    </g>
    <g id="xtick_3">
     <g id="line2d_5">
      <path d="M 453.039612 320.4 
L 453.039612 43.2 
" clip-path="url(#p6066741aac)" style="fill: none; stroke-dasharray: 5.12,1.28,0.8,1.28; stroke-dashoffset: 0; stroke: #b0b0b0; stroke-width: 0.8"/>
     </g>
     <g id="line2d_6">
      <g>
       <use xlink:href="#mb6e3a8120a" x="453.039612" y="320.4" style="fill: #a9a9a9; stroke: #a9a9a9; stroke-width: 0.8"/>
      </g>
     </g>
     <g id="text_3">
      <!-- 2024 -->
      <g style="fill: #a9a9a9" transform="translate(440.314612 334.998438) scale(0.1 -0.1)">
       <defs>
        <path id="DejaVuSans-34" d="M 2419 4116 
L 825 1625 
L 2419 1625 
L 2419 4116 
z
M 2253 4666 
L 3047 4666 
L 3047 1625 
L 3713 1625 
L 3713 1100 
L 3047 1100 
L 3047 0 
L 2419 0 
L 2419 1100 
L 313 1100 
L 313 1709 
L 2253 4666 
z
" transform="scale(0.015625)"/>
       </defs>
       <use xlink:href="#DejaVuSans-32"/>
       <use xlink:href="#DejaVuSans-30" transform="translate(63.623047 0)"/>
       <use xlink:href="#DejaVuSans-32" transform="translate(127.246094 0)"/>
       <use xlink:href="#DejaVuSans-34" transform="translate(190.869141 0)"/>
      </g>
     </g>
    </g>
    <g id="xtick_4">
     <g id="line2d_7">
      <path d="M 582.270576 320.4 
L 582.270576 43.2 
" clip-path="url(#p6066741aac)" style="fill: none; stroke-dasharray: 5.12,1.28,0.8,1.28; stroke-dashoffset: 0; stroke: #b0b0b0; stroke-width: 0.8"/>
     </g>
     <g id="line2d_8">
      <g>
       <use xlink:href="#mb6e3a8120a" x="582.270576" y="320.4" style="fill: #a9a9a9; stroke: #a9a9a9; stroke-width: 0.8"/>
      </g>
     </g>
     <g id="text_4">
      <!-- 2025 -->
      <g style="fill: #a9a9a9" transform="translate(569.545576 334.998438) scale(0.1 -0.1)">
       <defs>
        <path id="DejaVuSans-35" d="M 691 4666 
L 3169 4666 
L 3169 4134 
L 1269 4134 
L 1269 2991 
Q 1406 3038 1543 3061 
Q 1681 3084 1819 3084 
Q 2600 3084 3056 2656 
Q 3513 2228 3513 1497 
Q 3513 744 3044 326 
Q 2575 -91 1722 -91 
Q 1428 -91 1123 -41 
Q 819 9 494 109 
L 494 744 
Q 775 591 1075 516 
Q 1375 441 1709 441 
Q 2250 441 2565 725 
Q 2881 1009 2881 1497 
Q 2881 1984 2565 2268 
Q 2250 2553 1709 2553 
Q 1456 2553 1204 2497 
Q 953 2441 691 2322 
L 691 4666 
z
" transform="scale(0.015625)"/>
       </defs>
       <use xlink:href="#DejaVuSans-32"/>
       <use xlink:href="#DejaVuSans-30" transform="translate(63.623047 0)"/>
       <use xlink:href="#DejaVuSans-32" transform="translate(127.246094 0)"/>
       <use xlink:href="#DejaVuSans-35" transform="translate(190.869141 0)"/>
      </g>
     </g>
    </g>
    <g id="xtick_5">
     <g id="line2d_9">
      <path d="M 711.14845 320.4 
L 711.14845 43.2 
" clip-path="url(#p6066741aac)" style="fill: none; stroke-dasharray: 5.12,1.28,0.8,1.28; stroke-dashoffset: 0; stroke: #b0b0b0; stroke-width: 0.8"/>
     </g>
     <g id="line2d_10">
      <g>
       <use xlink:href="#mb6e3a8120a" x="711.14845" y="320.4" style="fill: #a9a9a9; stroke: #a9a9a9; stroke-width: 0.8"/>
      </g>
     </g>
     <g id="text_5">
      <!-- 2026 -->
      <g style="fill: #a9a9a9" transform="translate(698.42345 334.998438) scale(0.1 -0.1)">
       <defs>
        <path id="DejaVuSans-36" d="M 2113 2584 
Q 1688 2584 1439 2293 
Q 1191 2003 1191 1497 
Q 1191 994 1439 701 
Q 1688 409 2113 409 
Q 2538 409 2786 701 
Q 3034 994 3034 1497 
Q 3034 2003 2786 2293 
Q 2538 2584 2113 2584 
z
M 3366 4563 
L 3366 3988 
Q 3128 4100 2886 4159 
Q 2644 4219 2406 4219 
Q 1781 4219 1451 3797 
Q 1122 3375 1075 2522 
Q 1259 2794 1537 2939 
Q 1816 3084 2150 3084 
Q 2853 3084 3261 2657 
Q 3669 2231 3669 1497 
Q 3669 778 3244 343 
Q 2819 -91 2113 -91 
Q 1303 -91 875 529 
Q 447 1150 447 2328 
Q 447 3434 972 4092 
Q 1497 4750 2381 4750 
Q 2619 4750 2861 4703 
Q 3103 4656 3366 4563 
z
" transform="scale(0.015625)"/>
       </defs>
       <use xlink:href="#DejaVuSans-32"/>
       <use xlink:href="#DejaVuSans-30" transform="translate(63.623047 0)"/>
       <use xlink:href="#DejaVuSans-32" transform="translate(127.246094 0)"/>
       <use xlink:href="#DejaVuSans-36" transform="translate(190.869141 0)"/>
      </g>
     </g>
    </g>
   </g>
   <g id="matplotlib.axis_2">
    <g id="ytick_1">
     <g id="line2d_11">
      <path d="M 108 307.828504 
L 777.6 307.828504 
" clip-path="url(#p6066741aac)" style="fill: none; stroke-dasharray: 5.12,1.28,0.8,1.28; stroke-dashoffset: 0; stroke: #b0b0b0; stroke-width: 0.8"/>
     </g>
     <g id="line2d_12">
      <defs>
       <path id="m8d95210f38" d="M 0 0 
L -3.5 0 
" style="stroke: #a9a9a9; stroke-width: 0.8"/>
      </defs>
      <g>
       <use xlink:href="#m8d95210f38" x="108" y="307.828504" style="fill: #a9a9a9; stroke: #a9a9a9; stroke-width: 0.8"/>
      </g>
     </g>
     <g id="text_6">
      <!-- 0 -->
      <g style="fill: #a9a9a9" transform="translate(94.6375 311.627722) scale(0.1 -0.1)">
       <use xlink:href="#DejaVuSans-30"/>
      </g>
     </g>
    </g>
    <g id="ytick_2">
     <g id="line2d_13">
      <path d="M 108 279.324941 
L 777.6 279.324941 
" clip-path="url(#p6066741aac)" style="fill: none; stroke-dasharray: 5.12,1.28,0.8,1.28; stroke-dashoffset: 0; stroke: #b0b0b0; stroke-width: 0.8"/>
     </g>
     <g id="line2d_14">
      <g>
       <use xlink:href="#m8d95210f38" x="108" y="279.324941" style="fill: #a9a9a9; stroke: #a9a9a9; stroke-width: 0.8"/>
      </g>
     </g>
     <g id="text_7">
      <!-- 1000 -->
      <g style="fill: #a9a9a9" transform="translate(75.55 283.124159) scale(0.1 -0.1)">
       <defs>
        <path id="DejaVuSans-31" d="M 794 531 
L 1825 531 
L 1825 4091 
L 703 3866 
L 703 4441 
L 1819 4666 
L 2450 4666 
L 2450 531 
L 3481 531 
L 3481 0 
L 794 0 
L 794 531 
z
" transform="scale(0.015625)"/>
       </defs>
       <use xlink:href="#DejaVuSans-31"/>
       <use xlink:href="#DejaVuSans-30" transform="translate(63.623047 0)"/>
       <use xlink:href="#DejaVuSans-30" transform="translate(127.246094 0)"/>
       <use xlink:href="#DejaVuSans-30" transform="translate(190.869141 0)"/>
      </g>
     </g>
    </g>
    <g id="ytick_3">
     <g id="line2d_15">
      <path d="M 108 250.821378 
L 777.6 250.821378 
" clip-path="url(#p6066741aac)" style="fill: none; stroke-dasharray: 5.12,1.28,0.8,1.28; stroke-dashoffset: 0; stroke: #b0b0b0; stroke-width: 0.8"/>
     </g>
     <g id="line2d_16">
      <g>
       <use xlink:href="#m8d95210f38" x="108" y="250.821378" style="fill: #a9a9a9; stroke: #a9a9a9; stroke-width: 0.8"/>
      </g>
     </g>
     <g id="text_8">
      <!-- 2000 -->
      <g style="fill: #a9a9a9" transform="translate(75.55 254.620596) scale(0.1 -0.1)">
       <use xlink:href="#DejaVuSans-32"/>
       <use xlink:href="#DejaVuSans-30" transform="translate(63.623047 0)"/>
       <use xlink:href="#DejaVuSans-30" transform="translate(127.246094 0)"/>
       <use xlink:href="#DejaVuSans-30" transform="translate(190.869141 0)"/>
      </g>
     </g>
    </g>
    <g id="ytick_4">
     <g id="line2d_17">
      <path d="M 108 222.317815 
L 777.6 222.317815 
" clip-path="url(#p6066741aac)" style="fill: none; stroke-dasharray: 5.12,1.28,0.8,1.28; stroke-dashoffset: 0; stroke: #b0b0b0; stroke-width: 0.8"/>
     </g>
     <g id="line2d_18">
      <g>
       <use xlink:href="#m8d95210f38" x="108" y="222.317815" style="fill: #a9a9a9; stroke: #a9a9a9; stroke-width: 0.8"/>
      </g>
     </g>
     <g id="text_9">
      <!-- 3000 -->
      <g style="fill: #a9a9a9" transform="translate(75.55 226.117033) scale(0.1 -0.1)">
       <use xlink:href="#DejaVuSans-33"/>
       <use xlink:href="#DejaVuSans-30" transform="translate(63.623047 0)"/>
       <use xlink:href="#DejaVuSans-30" transform="translate(127.246094 0)"/>
       <use xlink:href="#DejaVuSans-30" transform="translate(190.869141 0)"/>
      </g>
     </g>
    </g>
    <g id="ytick_5">
     <g id="line2d_19">
      <path d="M 108 193.814252 
L 777.6 193.814252 
" clip-path="url(#p6066741aac)" style="fill: none; stroke-dasharray: 5.12,1.28,0.8,1.28; stroke-dashoffset: 0; stroke: #b0b0b0; stroke-width: 0.8"/>
     </g>
     <g id="line2d_20">
      <g>
       <use xlink:href="#m8d95210f38" x="108" y="193.814252" style="fill: #a9a9a9; stroke: #a9a9a9; stroke-width: 0.8"/>
      </g>
     </g>
     <g id="text_10">
      <!-- 4000 -->
      <g style="fill: #a9a9a9" transform="translate(75.55 197.613471) scale(0.1 -0.1)">
       <use xlink:href="#DejaVuSans-34"/>
       <use xlink:href="#DejaVuSans-30" transform="translate(63.623047 0)"/>
       <use xlink:href="#DejaVuSans-30" transform="translate(127.246094 0)"/>
       <use xlink:href="#DejaVuSans-30" transform="translate(190.869141 0)"/>
      </g>
     </g>
    </g>
    <g id="ytick_6">
     <g id="line2d_21">
      <path d="M 108 165.310689 
L 777.6 165.310689 
" clip-path="url(#p6066741aac)" style="fill: none; stroke-dasharray: 5.12,1.28,0.8,1.28; stroke-dashoffset: 0; stroke: #b0b0b0; stroke-width: 0.8"/>
     </g>
     <g id="line2d_22">
      <g>
       <use xlink:href="#m8d95210f38" x="108" y="165.310689" style="fill: #a9a9a9; stroke: #a9a9a9; stroke-width: 0.8"/>
      </g>
     </g>
     <g id="text_11">
      <!-- 5000 -->
      <g style="fill: #a9a9a9" transform="translate(75.55 169.109908) scale(0.1 -0.1)">
       <use xlink:href="#DejaVuSans-35"/>
       <use xlink:href="#DejaVuSans-30" transform="translate(63.623047 0)"/>
       <use xlink:href="#DejaVuSans-30" transform="translate(127.246094 0)"/>
       <use xlink:href="#DejaVuSans-30" transform="translate(190.869141 0)"/>
      </g>
     </g>
    </g>
    <g id="ytick_7">
     <g id="line2d_23">
      <path d="M 108 136.807126 
L 777.6 136.807126 
" clip-path="url(#p6066741aac)" style="fill: none; stroke-dasharray: 5.12,1.28,0.8,1.28; stroke-dashoffset: 0; stroke: #b0b0b0; stroke-width: 0.8"/>
     </g>
     <g id="line2d_24">
      <g>
       <use xlink:href="#m8d95210f38" x="108" y="136.807126" style="fill: #a9a9a9; stroke: #a9a9a9; stroke-width: 0.8"/>
      </g>
     </g>
     <g id="text_12">
      <!-- 6000 -->
      <g style="fill: #a9a9a9" transform="translate(75.55 140.606345) scale(0.1 -0.1)">
       <use xlink:href="#DejaVuSans-36"/>
       <use xlink:href="#DejaVuSans-30" transform="translate(63.623047 0)"/>
       <use xlink:href="#DejaVuSans-30" transform="translate(127.246094 0)"/>
       <use xlink:href="#DejaVuSans-30" transform="translate(190.869141 0)"/>
      </g>
     </g>
    </g>
    <g id="ytick_8">
     <g id="line2d_25">
      <path d="M 108 108.303563 
L 777.6 108.303563 
" clip-path="url(#p6066741aac)" style="fill: none; stroke-dasharray: 5.12,1.28,0.8,1.28; stroke-dashoffset: 0; stroke: #b0b0b0; stroke-width: 0.8"/>
     </g>
     <g id="line2d_26">
      <g>
       <use xlink:href="#m8d95210f38" x="108" y="108.303563" style="fill: #a9a9a9; stroke: #a9a9a9; stroke-width: 0.8"/>
      </g>
     </g>
     <g id="text_13">
      <!-- 7000 -->
      <g style="fill: #a9a9a9" transform="translate(75.55 112.102782) scale(0.1 -0.1)">
       <defs>
        <path id="DejaVuSans-37" d="M 525 4666 
L 3525 4666 
L 3525 4397 
L 1831 0 
L 1172 0 
L 2766 4134 
L 525 4134 
L 525 4666 
z
" transform="scale(0.015625)"/>
       </defs>
       <use xlink:href="#DejaVuSans-37"/>
       <use xlink:href="#DejaVuSans-30" transform="translate(63.623047 0)"/>
       <use xlink:href="#DejaVuSans-30" transform="translate(127.246094 0)"/>
       <use xlink:href="#DejaVuSans-30" transform="translate(190.869141 0)"/>
      </g>
     </g>
    </g>
    <g id="ytick_9">
     <g id="line2d_27">
      <path d="M 108 79.8 
L 777.6 79.8 
" clip-path="url(#p6066741aac)" style="fill: none; stroke-dasharray: 5.12,1.28,0.8,1.28; stroke-dashoffset: 0; stroke: #b0b0b0; stroke-width: 0.8"/>
     </g>
     <g id="line2d_28">
      <g>
       <use xlink:href="#m8d95210f38" x="108" y="79.8" style="fill: #a9a9a9; stroke: #a9a9a9; stroke-width: 0.8"/>
      </g>
     </g>
     <g id="text_14">
      <!-- 8000 -->
      <g style="fill: #a9a9a9" transform="translate(75.55 83.599219) scale(0.1 -0.1)">
       <defs>
        <path id="DejaVuSans-38" d="M 2034 2216 
Q 1584 2216 1326 1975 
Q 1069 1734 1069 1313 
Q 1069 891 1326 650 
Q 1584 409 2034 409 
Q 2484 409 2743 651 
Q 3003 894 3003 1313 
Q 3003 1734 2745 1975 
Q 2488 2216 2034 2216 
z
M 1403 2484 
Q 997 2584 770 2862 
Q 544 3141 544 3541 
Q 544 4100 942 4425 
Q 1341 4750 2034 4750 
Q 2731 4750 3128 4425 
Q 3525 4100 3525 3541 
Q 3525 3141 3298 2862 
Q 3072 2584 2669 2484 
Q 3125 2378 3379 2068 
Q 3634 1759 3634 1313 
Q 3634 634 3220 271 
Q 2806 -91 2034 -91 
Q 1263 -91 848 271 
Q 434 634 434 1313 
Q 434 1759 690 2068 
Q 947 2378 1403 2484 
z
M 1172 3481 
Q 1172 3119 1398 2916 
Q 1625 2713 2034 2713 
Q 2441 2713 2670 2916 
Q 2900 3119 2900 3481 
Q 2900 3844 2670 4047 
Q 2441 4250 2034 4250 
Q 1625 4250 1398 4047 
Q 1172 3844 1172 3481 
z
" transform="scale(0.015625)"/>
       </defs>
       <use xlink:href="#DejaVuSans-38"/>
       <use xlink:href="#DejaVuSans-30" transform="translate(63.623047 0)"/>
       <use xlink:href="#DejaVuSans-30" transform="translate(127.246094 0)"/>
       <use xlink:href="#DejaVuSans-30" transform="translate(190.869141 0)"/>
      </g>
     </g>
    </g>
    <g id="ytick_10">
     <g id="line2d_29">
      <path d="M 108 51.296437 
L 777.6 51.296437 
" clip-path="url(#p6066741aac)" style="fill: none; stroke-dasharray: 5.12,1.28,0.8,1.28; stroke-dashoffset: 0; stroke: #b0b0b0; stroke-width: 0.8"/>
     </g>
     <g id="line2d_30">
      <g>
       <use xlink:href="#m8d95210f38" x="108" y="51.296437" style="fill: #a9a9a9; stroke: #a9a9a9; stroke-width: 0.8"/>
      </g>
     </g>
     <g id="text_15">
      <!-- 9000 -->
      <g style="fill: #a9a9a9" transform="translate(75.55 55.095656) scale(0.1 -0.1)">
       <defs>
        <path id="DejaVuSans-39" d="M 703 97 
L 703 672 
Q 941 559 1184 500 
Q 1428 441 1663 441 
Q 2288 441 2617 861 
Q 2947 1281 2994 2138 
Q 2813 1869 2534 1725 
Q 2256 1581 1919 1581 
Q 1219 1581 811 2004 
Q 403 2428 403 3163 
Q 403 3881 828 4315 
Q 1253 4750 1959 4750 
Q 2769 4750 3195 4129 
Q 3622 3509 3622 2328 
Q 3622 1225 3098 567 
Q 2575 -91 1691 -91 
Q 1453 -91 1209 -44 
Q 966 3 703 97 
z
M 1959 2075 
Q 2384 2075 2632 2365 
Q 2881 2656 2881 3163 
Q 2881 3666 2632 3958 
Q 2384 4250 1959 4250 
Q 1534 4250 1286 3958 
Q 1038 3666 1038 3163 
Q 1038 2656 1286 2365 
Q 1534 2075 1959 2075 
z
" transform="scale(0.015625)"/>
       </defs>
       <use xlink:href="#DejaVuSans-39"/>
       <use xlink:href="#DejaVuSans-30" transform="translate(63.623047 0)"/>
       <use xlink:href="#DejaVuSans-30" transform="translate(127.246094 0)"/>
       <use xlink:href="#DejaVuSans-30" transform="translate(190.869141 0)"/>
      </g>
     </g>
    </g>
   </g>
   <g id="line2d_31">
    <path d="M 138.436364 307.742993 
L 140.554904 307.543468 
L 140.907994 307.372447 
L 142.320354 307.172922 
L 143.732715 306.859382 
L 145.145075 306.631354 
L 146.204345 306.574347 
L 146.910525 306.289311 
L 147.263615 305.776247 
L 147.616705 305.519715 
L 147.969795 304.664608 
L 148.322885 304.607601 
L 149.029066 304.151544 
L 149.735246 303.609976 
L 151.147606 302.526841 
L 151.500696 302.384323 
L 152.206876 301.928266 
L 153.266146 301.386698 
L 153.619236 300.788124 
L 154.325417 300.218052 
L 155.031597 299.990024 
L 156.090867 299.819002 
L 158.209407 299.47696 
L 158.562497 299.305938 
L 161.034128 299.07791 
L 162.446488 298.707363 
L 165.271209 298.27981 
L 165.624299 298.080285 
L 165.977389 298.023278 
L 166.683569 297.766746 
L 169.155199 297.310689 
L 169.861379 297.08266 
L 173.03919 296.512589 
L 173.74537 296.341568 
L 175.15773 296.142043 
L 175.863911 295.914014 
L 176.217001 295.372447 
L 177.276271 294.91639 
L 178.335541 294.60285 
L 178.688631 294.403325 
L 179.394811 294.260808 
L 181.160262 293.804751 
L 182.219532 293.548219 
L 183.631892 293.177672 
L 183.984982 293.149169 
L 184.691162 292.807126 
L 185.044252 292.750119 
L 185.397342 292.550594 
L 189.987513 291.72399 
L 191.399873 291.068409 
L 192.106054 290.868884 
L 192.812234 290.555344 
L 193.518414 290.013777 
L 194.577684 289.785748 
L 202.345665 287.334442 
L 202.698756 287.305938 
L 203.758026 286.963895 
L 204.111116 286.963895 
L 204.464206 286.792874 
L 205.170386 286.707363 
L 205.523476 286.564846 
L 207.288926 286.479335 
L 207.642016 286.393824 
L 208.348197 285.994774 
L 209.407467 285.595724 
L 210.113647 285.196675 
L 211.172917 284.712114 
L 212.585277 283.999525 
L 212.938367 283.600475 
L 213.644548 282.403325 
L 214.703818 282.061283 
L 215.056908 281.776247 
L 216.116178 281.377197 
L 216.469268 281.006651 
L 217.528538 280.550594 
L 217.881628 280.351069 
L 220.000169 277.785748 
L 220.706349 277.443705 
L 222.118709 276.417577 
L 222.824889 275.904513 
L 223.177979 275.362945 
L 223.531069 274.479335 
L 223.884159 273.909264 
L 226.0027 272.170546 
L 227.06197 271.201425 
L 227.76815 270.260808 
L 228.82742 269.462708 
L 230.239781 268.550594 
L 230.945961 268.151544 
L 232.358321 267.353444 
L 234.123771 265.586223 
L 234.829951 265.272684 
L 235.536132 264.75962 
L 235.889222 264.531591 
L 236.242312 264.474584 
L 237.301582 263.847506 
L 237.654672 263.419952 
L 239.420122 262.393824 
L 239.773212 262.251306 
L 240.832483 261.453207 
L 246.128834 259.40095 
L 246.835014 258.688361 
L 247.894284 258.11829 
L 248.600464 257.633729 
L 249.306644 257.405701 
L 249.659734 257.149169 
L 250.012824 257.035154 
L 251.072094 256.265558 
L 253.190635 255.63848 
L 253.896815 255.182423 
L 254.956085 254.925891 
L 255.309175 254.84038 
L 256.368445 254.04228 
L 257.780806 253.614727 
L 258.486986 253.187173 
L 259.193166 252.873634 
L 260.252436 252.531591 
L 260.958616 252.389074 
L 261.664796 252.075534 
L 264.136427 251.106413 
L 264.842607 251.020903 
L 266.254967 250.450831 
L 270.138958 248.370071 
L 270.845138 248.028029 
L 271.551318 247.685986 
L 272.257498 247.543468 
L 272.963679 247.087411 
L 273.669859 246.887886 
L 274.729129 246.431829 
L 276.141489 246.232304 
L 276.847669 245.833254 
L 277.200759 245.491211 
L 277.553849 244.807126 
L 278.96621 244.379572 
L 280.37857 243.695487 
L 283.556381 242.184798 
L 284.262561 242.013777 
L 285.321831 241.443705 
L 285.674921 241.386698 
L 287.440371 240.446081 
L 288.146551 239.96152 
L 289.205822 239.733492 
L 292.383632 238.593349 
L 293.795992 237.966271 
L 294.149082 237.681235 
L 294.502173 237.567221 
L 295.208353 237.139667 
L 296.973803 236.455582 
L 299.092343 234.830879 
L 299.445433 234.773872 
L 299.798524 234.146793 
L 300.151614 234.004276 
L 300.504704 233.690736 
L 300.857794 233.633729 
L 301.563974 233.149169 
L 302.270154 232.892637 
L 302.976334 232.465083 
L 304.741784 231.296437 
L 306.860325 230.298812 
L 307.213415 229.64323 
L 307.919595 229.073159 
L 308.625775 228.788124 
L 308.978865 228.531591 
L 309.331955 228.446081 
L 310.038135 228.075534 
L 311.450496 227.334442 
L 312.156676 226.67886 
L 312.862856 226.051781 
L 313.569036 225.595724 
L 314.275216 224.911639 
L 314.981396 224.313064 
L 315.334486 224.142043 
L 316.040667 223.372447 
L 317.099937 222.859382 
L 317.806117 222.431829 
L 318.159207 222.317815 
L 318.512297 222.032779 
L 318.865387 221.975772 
L 322.043198 220.265558 
L 322.749378 220.066033 
L 324.161738 219.581473 
L 324.867918 219.096912 
L 326.280278 218.555344 
L 326.986459 218.099287 
L 327.692639 217.814252 
L 328.398819 217.272684 
L 329.104999 215.790499 
L 329.811179 214.935392 
L 330.870449 214.365321 
L 331.576629 214.051781 
L 331.929719 213.994774 
L 332.6359 213.652732 
L 334.40135 212.99715 
L 335.10753 212.512589 
L 336.1668 212.056532 
L 337.932251 210.944893 
L 338.638431 210.260808 
L 339.697701 209.71924 
L 340.403881 209.291686 
L 341.816241 208.465083 
L 342.169331 208.379572 
L 342.522421 208.094537 
L 344.994052 207.23943 
L 345.347142 206.982898 
L 346.053322 206.754869 
L 349.937313 204.788124 
L 350.643493 204.189549 
L 351.349673 203.990024 
L 351.702763 203.647981 
L 352.055853 203.590974 
L 352.762033 203.020903 
L 354.527484 201.909264 
L 355.233664 201.681235 
L 355.586754 201.453207 
L 355.939844 201.3962 
L 358.058384 200.455582 
L 362.295465 199.087411 
L 363.354735 198.317815 
L 364.060915 197.918765 
L 365.473276 197.206176 
L 366.532546 196.465083 
L 367.238726 196.294062 
L 368.297996 195.609976 
L 371.475807 194.469834 
L 372.181987 194.213302 
L 373.594347 193.899762 
L 374.300527 193.671734 
L 376.065978 193.044656 
L 377.125248 192.702613 
L 377.831428 192.531591 
L 379.949968 192.132542 
L 380.656148 191.990024 
L 381.715419 191.733492 
L 382.068509 191.56247 
L 382.774689 191.419952 
L 383.480869 191.220428 
L 384.187049 190.878385 
L 384.540139 190.735867 
L 384.893229 190.735867 
L 390.18958 188.968646 
L 390.54267 188.569596 
L 392.661211 187.628979 
L 394.073571 187.115914 
L 394.426661 186.887886 
L 396.192111 186.346318 
L 396.545201 186.089786 
L 396.898291 186.004276 
L 397.251382 185.690736 
L 398.310652 185.462708 
L 399.016832 185.120665 
L 399.369922 184.664608 
L 410.315714 181.928266 
L 411.728074 181.472209 
L 413.140435 181.016152 
L 413.846615 180.702613 
L 414.552795 180.417577 
L 414.905885 180.161045 
L 416.671335 179.619477 
L 418.083695 178.963895 
L 419.496056 178.792874 
L 427.617127 175.600475 
L 429.382578 175.087411 
L 430.088758 174.716865 
L 431.148028 174.460333 
L 432.560388 173.234679 
L 435.032019 172.12304 
L 437.503649 171.011401 
L 438.562919 170.640855 
L 439.622189 170.099287 
L 442.44691 168.617102 
L 443.15309 168.275059 
L 443.50618 167.990024 
L 444.56545 167.533967 
L 445.977811 166.792874 
L 447.390171 166.222803 
L 449.861801 165.282185 
L 450.567981 165.196675 
L 450.921072 164.940143 
L 452.333432 164.655107 
L 453.039612 164.341568 
L 454.805062 163.457957 
L 459.395233 161.32019 
L 460.454503 160.949644 
L 460.807593 160.693112 
L 461.513773 160.607601 
L 461.866864 160.379572 
L 462.573044 160.265558 
L 467.163215 158.526841 
L 468.222485 158.270309 
L 469.634845 157.671734 
L 470.341025 157.272684 
L 471.753385 156.503088 
L 472.459565 156.332067 
L 472.812656 156.104038 
L 473.165746 156.047031 
L 474.931196 155.134917 
L 479.521367 153.339192 
L 479.874457 153.282185 
L 481.286817 152.569596 
L 481.992997 152.427078 
L 482.699177 151.999525 
L 484.111538 151.286936 
L 490.820249 148.465083 
L 491.526429 147.752494 
L 492.585699 147.210926 
L 493.644969 146.897387 
L 493.998059 146.612352 
L 494.70424 146.355819 
L 495.76351 145.614727 
L 496.46969 145.415202 
L 497.17587 145.016152 
L 498.23514 144.75962 
L 504.943852 141.966271 
L 505.650032 141.652732 
L 507.768572 140.854632 
L 509.534022 139.942518 
L 510.240202 139.714489 
L 510.593293 139.372447 
L 511.652563 138.944893 
L 512.005653 138.887886 
L 513.418013 138.2038 
L 514.477283 137.861758 
L 515.536553 137.462708 
L 516.595824 137.149169 
L 516.948914 137.092162 
L 517.655094 136.693112 
L 518.008184 136.550594 
L 518.361274 136.265558 
L 519.420544 135.980523 
L 520.126724 135.695487 
L 520.832904 135.381948 
L 522.245265 134.783373 
L 524.716895 134.156295 
L 525.423075 133.871259 
L 529.660156 132.788124 
L 531.778696 131.47696 
L 532.837967 130.849881 
L 534.956507 130.165796 
L 535.662687 129.738242 
L 538.134318 128.854632 
L 539.193588 128.512589 
L 539.899768 128.113539 
L 540.605948 127.914014 
L 540.959038 127.714489 
L 541.665218 127.571971 
L 543.430669 126.745368 
L 544.136849 126.460333 
L 545.549209 125.890261 
L 545.902299 125.548219 
L 546.255389 125.491211 
L 547.667749 124.892637 
L 549.08011 124.52209 
L 549.4332 124.493587 
L 549.78629 124.322565 
L 550.49247 124.180048 
L 553.670281 123.182423 
L 554.376461 122.612352 
L 555.788821 121.785748 
L 556.848091 121.443705 
L 560.025902 119.847506 
L 560.378992 119.56247 
L 562.497532 118.935392 
L 563.203712 118.650356 
L 564.262982 118.27981 
L 564.616073 117.966271 
L 567.087703 117.054157 
L 568.146973 116.569596 
L 568.500063 116.541093 
L 569.206243 116.256057 
L 570.618604 115.628979 
L 572.737144 115.087411 
L 573.796414 114.60285 
L 576.974225 113.576722 
L 577.680405 113.177672 
L 586.507657 110.384323 
L 586.860747 110.355819 
L 588.273107 109.785748 
L 590.038557 109.415202 
L 591.450918 108.873634 
L 591.804008 108.873634 
L 592.863278 108.617102 
L 593.569458 108.474584 
L 594.275638 108.275059 
L 595.334908 107.704988 
L 596.747269 107.248931 
L 601.337439 105.510214 
L 602.39671 105.139667 
L 604.16216 104.170546 
L 604.86834 104.085036 
L 607.33997 103.372447 
L 608.399241 103.144418 
L 611.223961 102.11829 
L 615.814132 100.322565 
L 616.520312 100.208551 
L 617.226492 100.066033 
L 617.579582 100.066033 
L 618.638853 99.72399 
L 620.404303 99.210926 
L 621.816663 98.726366 
L 626.406834 97.586223 
L 627.466104 97.073159 
L 628.878464 96.617102 
L 633.821725 95.106413 
L 634.174815 95.07791 
L 635.234086 94.67886 
L 635.940266 94.564846 
L 638.411896 93.624228 
L 640.883527 93.139667 
L 642.648977 92.626603 
L 643.002067 92.455582 
L 643.708247 91.828504 
L 646.886058 90.574347 
L 647.592238 90.460333 
L 650.416958 89.519715 
L 651.476229 88.92114 
L 651.829319 88.835629 
L 652.182409 88.550594 
L 653.241679 88.237055 
L 654.654039 87.666983 
L 655.713309 87.153919 
L 656.41949 86.726366 
L 656.77258 86.640855 
L 657.47876 86.241805 
L 660.30348 85.215677 
L 660.65657 84.902138 
L 661.00966 84.845131 
L 661.715841 84.389074 
L 662.775111 84.075534 
L 664.187471 83.47696 
L 664.540561 83.448456 
L 666.306011 82.764371 
L 667.012192 82.621853 
L 667.718372 82.108789 
L 668.071462 82.108789 
L 669.483822 81.595724 
L 670.896182 81.310689 
L 672.308543 80.68361 
L 672.661633 80.68361 
L 675.133263 79.942518 
L 675.839443 79.372447 
L 679.017254 78.2038 
L 680.429614 77.861758 
L 682.901244 77.177672 
L 685.019785 76.43658 
L 686.432145 76.12304 
L 688.903776 75.410451 
L 689.609956 75.267933 
L 692.434676 74.213302 
L 693.140856 74.070784 
L 694.553217 73.814252 
L 695.259397 73.700238 
L 696.671757 73.130166 
L 697.377937 72.930641 
L 698.084117 72.816627 
L 699.496478 72.389074 
L 699.849568 72.389074 
L 700.555748 71.990024 
L 703.733558 71.134917 
L 712.9139 67.40095 
L 713.62008 66.91639 
L 713.97317 66.830879 
L 714.32626 66.60285 
L 714.67935 66.545843 
L 715.38553 66.11829 
L 717.504071 65.633729 
L 717.857161 65.377197 
L 721.741152 64.03753 
L 722.447332 63.666983 
L 723.859692 63.096912 
L 726.684413 62.298812 
L 728.096773 62.127791 
L 729.156043 61.899762 
L 729.509133 61.842755 
L 730.568403 61.244181 
L 730.921493 61.187173 
L 731.627673 60.873634 
L 732.686944 60.702613 
L 733.393124 60.36057 
L 738.689475 58.27981 
L 739.748745 58.023278 
L 741.867285 57.453207 
L 742.573466 57.424703 
L 745.045096 56.655107 
L 745.398186 56.370071 
L 745.751276 56.313064 
L 746.457456 55.999525 
L 747.163636 55.8 
L 747.163636 55.8 
" clip-path="url(#p6066741aac)" style="fill: none; stroke: #1f77b4; stroke-width: 1.5; stroke-linecap: square"/>
   </g>
   <g id="line2d_32">
    <path d="M 138.789454 307.8 
L 141.967264 307.714489 
L 144.791985 307.571971 
L 146.204345 307.571971 
L 146.910525 307.457957 
L 155.384687 306.859382 
L 158.209407 306.773872 
L 159.974858 306.716865 
L 164.565028 306.631354 
L 166.330479 306.574347 
L 169.508289 306.488836 
L 170.92065 306.460333 
L 174.45155 306.374822 
L 175.863911 306.232304 
L 177.276271 306.2038 
L 179.394811 306.11829 
L 180.807171 306.089786 
L 182.572622 306.032779 
L 183.984982 305.890261 
L 187.162793 305.804751 
L 187.868973 305.747743 
L 189.281333 305.662233 
L 191.399873 305.576722 
L 192.812234 305.491211 
L 199.167855 305.063658 
L 201.639485 304.978147 
L 202.698756 304.864133 
L 204.464206 304.778622 
L 207.995107 304.579097 
L 211.526007 304.52209 
L 212.938367 304.379572 
L 214.703818 304.294062 
L 218.234718 303.923515 
L 220.353259 303.63848 
L 221.765619 303.581473 
L 224.59034 303.210926 
L 226.70888 303.153919 
L 227.76815 303.068409 
L 228.82742 302.982898 
L 247.188104 301.586223 
L 249.659734 301.500713 
L 251.072094 301.329691 
L 252.837545 301.244181 
L 254.956085 301.15867 
L 256.721536 301.073159 
L 258.133896 301.044656 
L 259.899346 300.987648 
L 260.605526 300.902138 
L 265.548787 300.816627 
L 266.254967 300.731116 
L 270.492048 300.645606 
L 273.669859 300.474584 
L 276.141489 300.389074 
L 277.906939 300.189549 
L 280.02548 300.104038 
L 281.08475 299.96152 
L 286.028011 299.87601 
L 287.440371 299.733492 
L 288.852731 299.704988 
L 289.912002 299.619477 
L 291.324362 299.47696 
L 294.855263 299.277435 
L 298.386163 299.191924 
L 301.563974 299.020903 
L 302.623244 298.992399 
L 303.329424 298.878385 
L 305.094874 298.821378 
L 305.801055 298.764371 
L 307.566505 298.67886 
L 308.978865 298.650356 
L 311.450496 298.564846 
L 320.630837 297.909264 
L 322.749378 297.823753 
L 324.514828 297.766746 
L 329.458089 297.681235 
L 330.164269 297.595724 
L 335.10753 297.510214 
L 338.638431 297.310689 
L 339.344611 297.282185 
L 340.050791 297.196675 
L 341.816241 297.111164 
L 343.581692 297.054157 
L 345.347142 296.968646 
L 347.112592 296.911639 
L 350.290403 296.826128 
L 352.408943 296.740618 
L 357.352204 296.655107 
L 361.236195 296.427078 
L 362.648555 296.370071 
L 363.707825 296.284561 
L 368.651086 296.19905 
L 370.769627 296.113539 
L 382.068509 296.028029 
L 384.893229 295.885511 
L 393.014301 295.8 
L 393.720481 295.742993 
L 399.723012 295.685986 
L 400.429192 295.628979 
L 415.965155 295.543468 
L 417.730605 295.486461 
L 427.970217 295.40095 
L 431.854208 295.172922 
L 433.972748 295.087411 
L 436.091289 295.0019 
L 439.622189 294.91639 
L 442.09382 294.802375 
L 444.91854 294.716865 
L 447.743261 294.574347 
L 454.451972 294.488836 
L 456.570513 294.403325 
L 460.454503 294.317815 
L 462.926134 294.2038 
L 465.397764 294.146793 
L 466.103944 294.089786 
L 474.578106 294.004276 
L 478.109007 293.804751 
L 480.933727 293.71924 
L 481.992997 293.576722 
L 485.523898 293.491211 
L 487.289348 293.434204 
L 490.820249 293.348694 
L 492.585699 293.149169 
L 496.1166 293.063658 
L 496.82278 292.978147 
L 500.353681 292.892637 
L 502.119131 292.835629 
L 506.003122 292.807126 
L 506.709302 292.721615 
L 510.593293 292.636105 
L 511.299473 292.579097 
L 519.067454 292.493587 
L 521.185995 292.408076 
L 526.482345 292.322565 
L 527.894706 292.294062 
L 531.072516 292.265558 
L 531.778696 292.180048 
L 536.368867 292.094537 
L 538.134318 292.03753 
L 544.489939 291.980523 
L 545.549209 291.895012 
L 546.608479 291.809501 
L 547.667749 291.72399 
L 552.9641 291.63848 
L 555.082641 291.552969 
L 565.322253 291.467458 
L 568.500063 291.296437 
L 573.443324 291.210926 
L 574.855684 291.182423 
L 579.092765 291.096912 
L 580.858216 291.039905 
L 588.979287 290.954394 
L 591.097827 290.868884 
L 597.100359 290.783373 
L 598.512719 290.754869 
L 602.043619 290.669359 
L 604.51525 290.555344 
L 608.399241 290.469834 
L 610.870871 290.355819 
L 614.048682 290.298812 
L 614.754862 290.241805 
L 622.522843 290.156295 
L 624.641384 290.070784 
L 627.113014 289.985273 
L 628.878464 289.928266 
L 639.118076 289.842755 
L 641.236617 289.757245 
L 647.239148 289.671734 
L 649.004598 289.614727 
L 653.594769 289.529216 
L 655.713309 289.443705 
L 658.53803 289.358195 
L 660.65657 289.272684 
L 674.780173 289.187173 
L 677.251803 289.073159 
L 685.725965 288.987648 
L 687.138325 288.959145 
L 695.612487 288.873634 
L 697.377937 288.816627 
L 708.676819 288.731116 
L 710.089179 288.702613 
L 720.681881 288.617102 
L 722.447332 288.560095 
L 733.040034 288.474584 
L 735.158574 288.389074 
L 747.163636 288.303563 
L 747.163636 288.303563 
" clip-path="url(#p6066741aac)" style="fill: none; stroke: #ff7f0e; stroke-width: 1.5; stroke-linecap: square"/>
   </g>
   <g id="patch_3">
    <path d="M 108 320.4 
L 108 43.2 
" style="fill: none; stroke: #a9a9a9; stroke-width: 0.8; stroke-linejoin: miter; stroke-linecap: square"/>
   </g>
   <g id="patch_4">
    <path d="M 777.6 320.4 
L 777.6 43.2 
" style="fill: none"/>
   </g>
   <g id="patch_5">
    <path d="M 108 320.4 
L 777.6 320.4 
" style="fill: none; stroke: #a9a9a9; stroke-width: 0.8; stroke-linejoin: miter; stroke-linecap: square"/>
   </g>
   <g id="patch_6">
    <path d="M 108 43.2 
L 777.6 43.2 
" style="fill: none"/>
   </g>
   <g id="text_16">
    <!-- get_subscribe history -->
    <g style="fill: #a9a9a9" transform="translate(378.6075 37.2) scale(0.12 -0.12)">
     <defs>
      <path id="DejaVuSans-67" d="M 2906 1791 
Q 2906 2416 2648 2759 
Q 2391 3103 1925 3103 
Q 1463 3103 1205 2759 
Q 947 2416 947 1791 
Q 947 1169 1205 825 
Q 1463 481 1925 481 
Q 2391 481 2648 825 
Q 2906 1169 2906 1791 
z
M 3481 434 
Q 3481 -459 3084 -895 
Q 2688 -1331 1869 -1331 
Q 1566 -1331 1297 -1286 
Q 1028 -1241 775 -1147 
L 775 -588 
Q 1028 -725 1275 -790 
Q 1522 -856 1778 -856 
Q 2344 -856 2625 -561 
Q 2906 -266 2906 331 
L 2906 616 
Q 2728 306 2450 153 
Q 2172 0 1784 0 
Q 1141 0 747 490 
Q 353 981 353 1791 
Q 353 2603 747 3093 
Q 1141 3584 1784 3584 
Q 2172 3584 2450 3431 
Q 2728 3278 2906 2969 
L 2906 3500 
L 3481 3500 
L 3481 434 
z
" transform="scale(0.015625)"/>
      <path id="DejaVuSans-65" d="M 3597 1894 
L 3597 1613 
L 953 1613 
Q 991 1019 1311 708 
Q 1631 397 2203 397 
Q 2534 397 2845 478 
Q 3156 559 3463 722 
L 3463 178 
Q 3153 47 2828 -22 
Q 2503 -91 2169 -91 
Q 1331 -91 842 396 
Q 353 884 353 1716 
Q 353 2575 817 3079 
Q 1281 3584 2069 3584 
Q 2775 3584 3186 3129 
Q 3597 2675 3597 1894 
z
M 3022 2063 
Q 3016 2534 2758 2815 
Q 2500 3097 2075 3097 
Q 1594 3097 1305 2825 
Q 1016 2553 972 2059 
L 3022 2063 
z
" transform="scale(0.015625)"/>
      <path id="DejaVuSans-74" d="M 1172 4494 
L 1172 3500 
L 2356 3500 
L 2356 3053 
L 1172 3053 
L 1172 1153 
Q 1172 725 1289 603 
Q 1406 481 1766 481 
L 2356 481 
L 2356 0 
L 1766 0 
Q 1100 0 847 248 
Q 594 497 594 1153 
L 594 3053 
L 172 3053 
L 172 3500 
L 594 3500 
L 594 4494 
L 1172 4494 
z
" transform="scale(0.015625)"/>
      <path id="DejaVuSans-5f" d="M 3263 -1063 
L 3263 -1509 
L -63 -1509 
L -63 -1063 
L 3263 -1063 
z
" transform="scale(0.015625)"/>
      <path id="DejaVuSans-73" d="M 2834 3397 
L 2834 2853 
Q 2591 2978 2328 3040 
Q 2066 3103 1784 3103 
Q 1356 3103 1142 2972 
Q 928 2841 928 2578 
Q 928 2378 1081 2264 
Q 1234 2150 1697 2047 
L 1894 2003 
Q 2506 1872 2764 1633 
Q 3022 1394 3022 966 
Q 3022 478 2636 193 
Q 2250 -91 1575 -91 
Q 1294 -91 989 -36 
Q 684 19 347 128 
L 347 722 
Q 666 556 975 473 
Q 1284 391 1588 391 
Q 1994 391 2212 530 
Q 2431 669 2431 922 
Q 2431 1156 2273 1281 
Q 2116 1406 1581 1522 
L 1381 1569 
Q 847 1681 609 1914 
Q 372 2147 372 2553 
Q 372 3047 722 3315 
Q 1072 3584 1716 3584 
Q 2034 3584 2315 3537 
Q 2597 3491 2834 3397 
z
" transform="scale(0.015625)"/>
      <path id="DejaVuSans-75" d="M 544 1381 
L 544 3500 
L 1119 3500 
L 1119 1403 
Q 1119 906 1312 657 
Q 1506 409 1894 409 
Q 2359 409 2629 706 
Q 2900 1003 2900 1516 
L 2900 3500 
L 3475 3500 
L 3475 0 
L 2900 0 
L 2900 538 
Q 2691 219 2414 64 
Q 2138 -91 1772 -91 
Q 1169 -91 856 284 
Q 544 659 544 1381 
z
M 1991 3584 
L 1991 3584 
z
" transform="scale(0.015625)"/>
      <path id="DejaVuSans-62" d="M 3116 1747 
Q 3116 2381 2855 2742 
Q 2594 3103 2138 3103 
Q 1681 3103 1420 2742 
Q 1159 2381 1159 1747 
Q 1159 1113 1420 752 
Q 1681 391 2138 391 
Q 2594 391 2855 752 
Q 3116 1113 3116 1747 
z
M 1159 2969 
Q 1341 3281 1617 3432 
Q 1894 3584 2278 3584 
Q 2916 3584 3314 3078 
Q 3713 2572 3713 1747 
Q 3713 922 3314 415 
Q 2916 -91 2278 -91 
Q 1894 -91 1617 61 
Q 1341 213 1159 525 
L 1159 0 
L 581 0 
L 581 4863 
L 1159 4863 
L 1159 2969 
z
" transform="scale(0.015625)"/>
      <path id="DejaVuSans-63" d="M 3122 3366 
L 3122 2828 
Q 2878 2963 2633 3030 
Q 2388 3097 2138 3097 
Q 1578 3097 1268 2742 
Q 959 2388 959 1747 
Q 959 1106 1268 751 
Q 1578 397 2138 397 
Q 2388 397 2633 464 
Q 2878 531 3122 666 
L 3122 134 
Q 2881 22 2623 -34 
Q 2366 -91 2075 -91 
Q 1284 -91 818 406 
Q 353 903 353 1747 
Q 353 2603 823 3093 
Q 1294 3584 2113 3584 
Q 2378 3584 2631 3529 
Q 2884 3475 3122 3366 
z
" transform="scale(0.015625)"/>
      <path id="DejaVuSans-72" d="M 2631 2963 
Q 2534 3019 2420 3045 
Q 2306 3072 2169 3072 
Q 1681 3072 1420 2755 
Q 1159 2438 1159 1844 
L 1159 0 
L 581 0 
L 581 3500 
L 1159 3500 
L 1159 2956 
Q 1341 3275 1631 3429 
Q 1922 3584 2338 3584 
Q 2397 3584 2469 3576 
Q 2541 3569 2628 3553 
L 2631 2963 
z
" transform="scale(0.015625)"/>
      <path id="DejaVuSans-69" d="M 603 3500 
L 1178 3500 
L 1178 0 
L 603 0 
L 603 3500 
z
M 603 4863 
L 1178 4863 
L 1178 4134 
L 603 4134 
L 603 4863 
z
" transform="scale(0.015625)"/>
      <path id="DejaVuSans-20" transform="scale(0.015625)"/>
      <path id="DejaVuSans-68" d="M 3513 2113 
L 3513 0 
L 2938 0 
L 2938 2094 
Q 2938 2591 2744 2837 
Q 2550 3084 2163 3084 
Q 1697 3084 1428 2787 
Q 1159 2491 1159 1978 
L 1159 0 
L 581 0 
L 581 4863 
L 1159 4863 
L 1159 2956 
Q 1366 3272 1645 3428 
Q 1925 3584 2291 3584 
Q 2894 3584 3203 3211 
Q 3513 2838 3513 2113 
z
" transform="scale(0.015625)"/>
      <path id="DejaVuSans-6f" d="M 1959 3097 
Q 1497 3097 1228 2736 
Q 959 2375 959 1747 
Q 959 1119 1226 758 
Q 1494 397 1959 397 
Q 2419 397 2687 759 
Q 2956 1122 2956 1747 
Q 2956 2369 2687 2733 
Q 2419 3097 1959 3097 
z
M 1959 3584 
Q 2709 3584 3137 3096 
Q 3566 2609 3566 1747 
Q 3566 888 3137 398 
Q 2709 -91 1959 -91 
Q 1206 -91 779 398 
Q 353 888 353 1747 
Q 353 2609 779 3096 
Q 1206 3584 1959 3584 
z
" transform="scale(0.015625)"/>
      <path id="DejaVuSans-79" d="M 2059 -325 
Q 1816 -950 1584 -1140 
Q 1353 -1331 966 -1331 
L 506 -1331 
L 506 -850 
L 844 -850 
Q 1081 -850 1212 -737 
Q 1344 -625 1503 -206 
L 1606 56 
L 191 3500 
L 800 3500 
L 1894 763 
L 2988 3500 
L 3597 3500 
L 2059 -325 
z
" transform="scale(0.015625)"/>
     </defs>
     <use xlink:href="#DejaVuSans-67"/>
     <use xlink:href="#DejaVuSans-65" transform="translate(63.476562 0)"/>
     <use xlink:href="#DejaVuSans-74" transform="translate(125 0)"/>
     <use xlink:href="#DejaVuSans-5f" transform="translate(164.208984 0)"/>
     <use xlink:href="#DejaVuSans-73" transform="translate(214.208984 0)"/>
     <use xlink:href="#DejaVuSans-75" transform="translate(266.308594 0)"/>
     <use xlink:href="#DejaVuSans-62" transform="translate(329.6875 0)"/>
     <use xlink:href="#DejaVuSans-73" transform="translate(393.164062 0)"/>
     <use xlink:href="#DejaVuSans-63" transform="translate(445.263672 0)"/>
     <use xlink:href="#DejaVuSans-72" transform="translate(500.244141 0)"/>
     <use xlink:href="#DejaVuSans-69" transform="translate(541.357422 0)"/>
     <use xlink:href="#DejaVuSans-62" transform="translate(569.140625 0)"/>
     <use xlink:href="#DejaVuSans-65" transform="translate(632.617188 0)"/>
     <use xlink:href="#DejaVuSans-20" transform="translate(694.140625 0)"/>
     <use xlink:href="#DejaVuSans-68" transform="translate(725.927734 0)"/>
     <use xlink:href="#DejaVuSans-69" transform="translate(789.306641 0)"/>
     <use xlink:href="#DejaVuSans-73" transform="translate(817.089844 0)"/>
     <use xlink:href="#DejaVuSans-74" transform="translate(869.189453 0)"/>
     <use xlink:href="#DejaVuSans-6f" transform="translate(908.398438 0)"/>
     <use xlink:href="#DejaVuSans-72" transform="translate(969.580078 0)"/>
     <use xlink:href="#DejaVuSans-79" transform="translate(1010.693359 0)"/>
    </g>
   </g>
   <g id="legend_1">
    <g id="line2d_33">
     <path d="M 815.08 328.498438 
L 825.08 328.498438 
L 835.08 328.498438 
" style="fill: none; stroke: #1f77b4; stroke-width: 1.5; stroke-linecap: square"/>
    </g>
    <g id="text_17">
     <!-- star -->
     <g style="fill: #a9a9a9" transform="translate(843.08 331.998438) scale(0.1 -0.1)">
      <defs>
       <path id="DejaVuSans-61" d="M 2194 1759 
Q 1497 1759 1228 1600 
Q 959 1441 959 1056 
Q 959 750 1161 570 
Q 1363 391 1709 391 
Q 2188 391 2477 730 
Q 2766 1069 2766 1631 
L 2766 1759 
L 2194 1759 
z
M 3341 1997 
L 3341 0 
L 2766 0 
L 2766 531 
Q 2569 213 2275 61 
Q 1981 -91 1556 -91 
Q 1019 -91 701 211 
Q 384 513 384 1019 
Q 384 1609 779 1909 
Q 1175 2209 1959 2209 
L 2766 2209 
L 2766 2266 
Q 2766 2663 2505 2880 
Q 2244 3097 1772 3097 
Q 1472 3097 1187 3025 
Q 903 2953 641 2809 
L 641 3341 
Q 956 3463 1253 3523 
Q 1550 3584 1831 3584 
Q 2591 3584 2966 3190 
Q 3341 2797 3341 1997 
z
" transform="scale(0.015625)"/>
      </defs>
      <use xlink:href="#DejaVuSans-73"/>
      <use xlink:href="#DejaVuSans-74" transform="translate(52.099609 0)"/>
      <use xlink:href="#DejaVuSans-61" transform="translate(91.308594 0)"/>
      <use xlink:href="#DejaVuSans-72" transform="translate(152.587891 0)"/>
     </g>
    </g>
    <g id="line2d_34">
     <path d="M 815.08 343.176562 
L 825.08 343.176562 
L 835.08 343.176562 
" style="fill: none; stroke: #ff7f0e; stroke-width: 1.5; stroke-linecap: square"/>
    </g>
    <g id="text_18">
     <!-- fork -->
     <g style="fill: #a9a9a9" transform="translate(843.08 346.676562) scale(0.1 -0.1)">
      <defs>
       <path id="DejaVuSans-66" d="M 2375 4863 
L 2375 4384 
L 1825 4384 
Q 1516 4384 1395 4259 
Q 1275 4134 1275 3809 
L 1275 3500 
L 2222 3500 
L 2222 3053 
L 1275 3053 
L 1275 0 
L 697 0 
L 697 3053 
L 147 3053 
L 147 3500 
L 697 3500 
L 697 3744 
Q 697 4328 969 4595 
Q 1241 4863 1831 4863 
L 2375 4863 
z
" transform="scale(0.015625)"/>
       <path id="DejaVuSans-6b" d="M 581 4863 
L 1159 4863 
L 1159 1991 
L 2875 3500 
L 3609 3500 
L 1753 1863 
L 3688 0 
L 2938 0 
L 1159 1709 
L 1159 0 
L 581 0 
L 581 4863 
z
" transform="scale(0.015625)"/>
      </defs>
      <use xlink:href="#DejaVuSans-66"/>
      <use xlink:href="#DejaVuSans-6f" transform="translate(35.205078 0)"/>
      <use xlink:href="#DejaVuSans-72" transform="translate(96.386719 0)"/>
      <use xlink:href="#DejaVuSans-6b" transform="translate(137.5 0)"/>
     </g>
    </g>
   </g>
  </g>
 </g>
 <defs>
  <clipPath id="p6066741aac">
   <rect x="108" y="43.2" width="669.6" height="277.2"/>
  </clipPath>
 </defs>
</svg>
