<?xml version="1.0" encoding="utf-8" standalone="no"?>
<!DOCTYPE svg PUBLIC "-//W3C//DTD SVG 1.1//EN"
  "http://www.w3.org/Graphics/SVG/1.1/DTD/svg11.dtd">
<svg xmlns:xlink="http://www.w3.org/1999/xlink" width="864pt" height="360pt" viewBox="0 0 864 360" xmlns="http://www.w3.org/2000/svg" version="1.1">
 <metadata>
  <rdf:RDF xmlns:dc="http://purl.org/dc/elements/1.1/" xmlns:cc="http://creativecommons.org/ns#" xmlns:rdf="http://www.w3.org/1999/02/22-rdf-syntax-ns#">
   <cc:Work>
    <dc:type rdf:resource="http://purl.org/dc/dcmitype/StillImage"/>
    <dc:date>2026-04-13T08:29:14.769034</dc:date>
    <dc:format>image/svg+xml</dc:format>
    <dc:creator>
     <cc:Agent>
      <dc:title>Matplotlib v3.10.8, https://matplotlib.org/</dc:title>
     </cc:Agent>
    </dc:creator>
   </cc:Work>
  </rdf:RDF>
 </metadata>
 <defs>
  <style type="text/css">*{stroke-linejoin: round; stroke-linecap: butt}</style>
 </defs>
 <g id="figure_1">
  <g id="patch_1">
   <path d="M 0 360 
L 864 360 
L 864 0 
L 0 0 
L 0 360 
z
" style="fill: none; opacity: 0"/>
  </g>
  <g id="axes_1">
   <g id="patch_2">
    <path d="M 108 320.4 
L 777.6 320.4 
L 777.6 43.2 
L 108 43.2 
L 108 320.4 
z
" style="fill: none; opacity: 0"/>
   </g>
   <g id="matplotlib.axis_1">
    <g id="xtick_1">
     <g id="line2d_1">
      <path d="M 195.283864 320.4 
L 195.283864 43.2 
" clip-path="url(#p53b0e11ec1)" style="fill: none; stroke-dasharray: 5.12,1.28,0.8,1.28; stroke-dashoffset: 0; stroke: #b0b0b0; stroke-width: 0.8"/>
     </g>
     <g id="line2d_2">
      <defs>
       <path id="ma60427a2c1" d="M 0 0 
L 0 3.5 
" style="stroke: #a9a9a9; stroke-width: 0.8"/>
      </defs>
      <g>
       <use xlink:href="#ma60427a2c1" x="195.283864" y="320.4" style="fill: #a9a9a9; stroke: #a9a9a9; stroke-width: 0.8"/>
      </g>
     </g>
     <g id="text_1">
      <!-- 2022 -->
      <g style="fill: #a9a9a9" transform="translate(182.558864 334.998438) scale(0.1 -0.1)">
       <defs>
        <path id="DejaVuSans-32" d="M 1228 531 
L 3431 531 
L 3431 0 
L 469 0 
L 469 531 
Q 828 903 1448 1529 
Q 2069 2156 2228 2338 
Q 2531 2678 2651 2914 
Q 2772 3150 2772 3378 
Q 2772 3750 2511 3984 
Q 2250 4219 1831 4219 
Q 1534 4219 1204 4116 
Q 875 4013 500 3803 
L 500 4441 
Q 881 4594 1212 4672 
Q 1544 4750 1819 4750 
Q 2544 4750 2975 4387 
Q 3406 4025 3406 3419 
Q 3406 3131 3298 2873 
Q 3191 2616 2906 2266 
Q 2828 2175 2409 1742 
Q 1991 1309 1228 531 
z
" transform="scale(0.015625)"/>
        <path id="DejaVuSans-30" d="M 2034 4250 
Q 1547 4250 1301 3770 
Q 1056 3291 1056 2328 
Q 1056 1369 1301 889 
Q 1547 409 2034 409 
Q 2525 409 2770 889 
Q 3016 1369 3016 2328 
Q 3016 3291 2770 3770 
Q 2525 4250 2034 4250 
z
M 2034 4750 
Q 2819 4750 3233 4129 
Q 3647 3509 3647 2328 
Q 3647 1150 3233 529 
Q 2819 -91 2034 -91 
Q 1250 -91 836 529 
Q 422 1150 422 2328 
Q 422 3509 836 4129 
Q 1250 4750 2034 4750 
z
" transform="scale(0.015625)"/>
       </defs>
       <use xlink:href="#DejaVuSans-32"/>
       <use xlink:href="#DejaVuSans-30" transform="translate(63.623047 0)"/>
       <use xlink:href="#DejaVuSans-32" transform="translate(127.246094 0)"/>
       <use xlink:href="#DejaVuSans-32" transform="translate(190.869141 0)"/>
      </g>
     </g>
    </g>
    <g id="xtick_2">
     <g id="line2d_3">
      <path d="M 324.161738 320.4 
L 324.161738 43.2 
" clip-path="url(#p53b0e11ec1)" style="fill: none; stroke-dasharray: 5.12,1.28,0.8,1.28; stroke-dashoffset: 0; stroke: #b0b0b0; stroke-width: 0.8"/>
     </g>
     <g id="line2d_4">
      <g>
       <use xlink:href="#ma60427a2c1" x="324.161738" y="320.4" style="fill: #a9a9a9; stroke: #a9a9a9; stroke-width: 0.8"/>
      </g>
     </g>
     <g id="text_2">
      <!-- 2023 -->
      <g style="fill: #a9a9a9" transform="translate(311.436738 334.998438) scale(0.1 -0.1)">
       <defs>
        <path id="DejaVuSans-33" d="M 2597 2516 
Q 3050 2419 3304 2112 
Q 3559 1806 3559 1356 
Q 3559 666 3084 287 
Q 2609 -91 1734 -91 
Q 1441 -91 1130 -33 
Q 819 25 488 141 
L 488 750 
Q 750 597 1062 519 
Q 1375 441 1716 441 
Q 2309 441 2620 675 
Q 2931 909 2931 1356 
Q 2931 1769 2642 2001 
Q 2353 2234 1838 2234 
L 1294 2234 
L 1294 2753 
L 1863 2753 
Q 2328 2753 2575 2939 
Q 2822 3125 2822 3475 
Q 2822 3834 2567 4026 
Q 2313 4219 1838 4219 
Q 1578 4219 1281 4162 
Q 984 4106 628 3988 
L 628 4550 
Q 988 4650 1302 4700 
Q 1616 4750 1894 4750 
Q 2613 4750 3031 4423 
Q 3450 4097 3450 3541 
Q 3450 3153 3228 2886 
Q 3006 2619 2597 2516 
z
" transform="scale(0.015625)"/>
       </defs>
       <use xlink:href="#DejaVuSans-32"/>
       <use xlink:href="#DejaVuSans-30" transform="translate(63.623047 0)"/>
       <use xlink:href="#DejaVuSans-32" transform="translate(127.246094 0)"/>
       <use xlink:href="#DejaVuSans-33" transform="translate(190.869141 0)"/>
      </g>
     </g>
    </g>
    <g id="xtick_3">
     <g id="line2d_5">
      <path d="M 453.039612 320.4 
L 453.039612 43.2 
" clip-path="url(#p53b0e11ec1)" style="fill: none; stroke-dasharray: 5.12,1.28,0.8,1.28; stroke-dashoffset: 0; stroke: #b0b0b0; stroke-width: 0.8"/>
     </g>
     <g id="line2d_6">
      <g>
       <use xlink:href="#ma60427a2c1" x="453.039612" y="320.4" style="fill: #a9a9a9; stroke: #a9a9a9; stroke-width: 0.8"/>
      </g>
     </g>
     <g id="text_3">
      <!-- 2024 -->
      <g style="fill: #a9a9a9" transform="translate(440.314612 334.998438) scale(0.1 -0.1)">
       <defs>
        <path id="DejaVuSans-34" d="M 2419 4116 
L 825 1625 
L 2419 1625 
L 2419 4116 
z
M 2253 4666 
L 3047 4666 
L 3047 1625 
L 3713 1625 
L 3713 1100 
L 3047 1100 
L 3047 0 
L 2419 0 
L 2419 1100 
L 313 1100 
L 313 1709 
L 2253 4666 
z
" transform="scale(0.015625)"/>
       </defs>
       <use xlink:href="#DejaVuSans-32"/>
       <use xlink:href="#DejaVuSans-30" transform="translate(63.623047 0)"/>
       <use xlink:href="#DejaVuSans-32" transform="translate(127.246094 0)"/>
       <use xlink:href="#DejaVuSans-34" transform="translate(190.869141 0)"/>
      </g>
     </g>
    </g>
    <g id="xtick_4">
     <g id="line2d_7">
      <path d="M 582.270576 320.4 
L 582.270576 43.2 
" clip-path="url(#p53b0e11ec1)" style="fill: none; stroke-dasharray: 5.12,1.28,0.8,1.28; stroke-dashoffset: 0; stroke: #b0b0b0; stroke-width: 0.8"/>
     </g>
     <g id="line2d_8">
      <g>
       <use xlink:href="#ma60427a2c1" x="582.270576" y="320.4" style="fill: #a9a9a9; stroke: #a9a9a9; stroke-width: 0.8"/>
      </g>
     </g>
     <g id="text_4">
      <!-- 2025 -->
      <g style="fill: #a9a9a9" transform="translate(569.545576 334.998438) scale(0.1 -0.1)">
       <defs>
        <path id="DejaVuSans-35" d="M 691 4666 
L 3169 4666 
L 3169 4134 
L 1269 4134 
L 1269 2991 
Q 1406 3038 1543 3061 
Q 1681 3084 1819 3084 
Q 2600 3084 3056 2656 
Q 3513 2228 3513 1497 
Q 3513 744 3044 326 
Q 2575 -91 1722 -91 
Q 1428 -91 1123 -41 
Q 819 9 494 109 
L 494 744 
Q 775 591 1075 516 
Q 1375 441 1709 441 
Q 2250 441 2565 725 
Q 2881 1009 2881 1497 
Q 2881 1984 2565 2268 
Q 2250 2553 1709 2553 
Q 1456 2553 1204 2497 
Q 953 2441 691 2322 
L 691 4666 
z
" transform="scale(0.015625)"/>
       </defs>
       <use xlink:href="#DejaVuSans-32"/>
       <use xlink:href="#DejaVuSans-30" transform="translate(63.623047 0)"/>
       <use xlink:href="#DejaVuSans-32" transform="translate(127.246094 0)"/>
       <use xlink:href="#DejaVuSans-35" transform="translate(190.869141 0)"/>
      </g>
     </g>
    </g>
    <g id="xtick_5">
     <g id="line2d_9">
      <path d="M 711.14845 320.4 
L 711.14845 43.2 
" clip-path="url(#p53b0e11ec1)" style="fill: none; stroke-dasharray: 5.12,1.28,0.8,1.28; stroke-dashoffset: 0; stroke: #b0b0b0; stroke-width: 0.8"/>
     </g>
     <g id="line2d_10">
      <g>
       <use xlink:href="#ma60427a2c1" x="711.14845" y="320.4" style="fill: #a9a9a9; stroke: #a9a9a9; stroke-width: 0.8"/>
      </g>
     </g>
     <g id="text_5">
      <!-- 2026 -->
      <g style="fill: #a9a9a9" transform="translate(698.42345 334.998438) scale(0.1 -0.1)">
       <defs>
        <path id="DejaVuSans-36" d="M 2113 2584 
Q 1688 2584 1439 2293 
Q 1191 2003 1191 1497 
Q 1191 994 1439 701 
Q 1688 409 2113 409 
Q 2538 409 2786 701 
Q 3034 994 3034 1497 
Q 3034 2003 2786 2293 
Q 2538 2584 2113 2584 
z
M 3366 4563 
L 3366 3988 
Q 3128 4100 2886 4159 
Q 2644 4219 2406 4219 
Q 1781 4219 1451 3797 
Q 1122 3375 1075 2522 
Q 1259 2794 1537 2939 
Q 1816 3084 2150 3084 
Q 2853 3084 3261 2657 
Q 3669 2231 3669 1497 
Q 3669 778 3244 343 
Q 2819 -91 2113 -91 
Q 1303 -91 875 529 
Q 447 1150 447 2328 
Q 447 3434 972 4092 
Q 1497 4750 2381 4750 
Q 2619 4750 2861 4703 
Q 3103 4656 3366 4563 
z
" transform="scale(0.015625)"/>
       </defs>
       <use xlink:href="#DejaVuSans-32"/>
       <use xlink:href="#DejaVuSans-30" transform="translate(63.623047 0)"/>
       <use xlink:href="#DejaVuSans-32" transform="translate(127.246094 0)"/>
       <use xlink:href="#DejaVuSans-36" transform="translate(190.869141 0)"/>
      </g>
     </g>
    </g>
   </g>
   <g id="matplotlib.axis_2">
    <g id="ytick_1">
     <g id="line2d_11">
      <path d="M 108 307.82851 
L 777.6 307.82851 
" clip-path="url(#p53b0e11ec1)" style="fill: none; stroke-dasharray: 5.12,1.28,0.8,1.28; stroke-dashoffset: 0; stroke: #b0b0b0; stroke-width: 0.8"/>
     </g>
     <g id="line2d_12">
      <defs>
       <path id="m1c5e16c122" d="M 0 0 
L -3.5 0 
" style="stroke: #a9a9a9; stroke-width: 0.8"/>
      </defs>
      <g>
       <use xlink:href="#m1c5e16c122" x="108" y="307.82851" style="fill: #a9a9a9; stroke: #a9a9a9; stroke-width: 0.8"/>
      </g>
     </g>
     <g id="text_6">
      <!-- 0 -->
      <g style="fill: #a9a9a9" transform="translate(94.6375 311.627729) scale(0.1 -0.1)">
       <use xlink:href="#DejaVuSans-30"/>
      </g>
     </g>
    </g>
    <g id="ytick_2">
     <g id="line2d_13">
      <path d="M 108 279.318498 
L 777.6 279.318498 
" clip-path="url(#p53b0e11ec1)" style="fill: none; stroke-dasharray: 5.12,1.28,0.8,1.28; stroke-dashoffset: 0; stroke: #b0b0b0; stroke-width: 0.8"/>
     </g>
     <g id="line2d_14">
      <g>
       <use xlink:href="#m1c5e16c122" x="108" y="279.318498" style="fill: #a9a9a9; stroke: #a9a9a9; stroke-width: 0.8"/>
      </g>
     </g>
     <g id="text_7">
      <!-- 1000 -->
      <g style="fill: #a9a9a9" transform="translate(75.55 283.117716) scale(0.1 -0.1)">
       <defs>
        <path id="DejaVuSans-31" d="M 794 531 
L 1825 531 
L 1825 4091 
L 703 3866 
L 703 4441 
L 1819 4666 
L 2450 4666 
L 2450 531 
L 3481 531 
L 3481 0 
L 794 0 
L 794 531 
z
" transform="scale(0.015625)"/>
       </defs>
       <use xlink:href="#DejaVuSans-31"/>
       <use xlink:href="#DejaVuSans-30" transform="translate(63.623047 0)"/>
       <use xlink:href="#DejaVuSans-30" transform="translate(127.246094 0)"/>
       <use xlink:href="#DejaVuSans-30" transform="translate(190.869141 0)"/>
      </g>
     </g>
    </g>
    <g id="ytick_3">
     <g id="line2d_15">
      <path d="M 108 250.808485 
L 777.6 250.808485 
" clip-path="url(#p53b0e11ec1)" style="fill: none; stroke-dasharray: 5.12,1.28,0.8,1.28; stroke-dashoffset: 0; stroke: #b0b0b0; stroke-width: 0.8"/>
     </g>
     <g id="line2d_16">
      <g>
       <use xlink:href="#m1c5e16c122" x="108" y="250.808485" style="fill: #a9a9a9; stroke: #a9a9a9; stroke-width: 0.8"/>
      </g>
     </g>
     <g id="text_8">
      <!-- 2000 -->
      <g style="fill: #a9a9a9" transform="translate(75.55 254.607704) scale(0.1 -0.1)">
       <use xlink:href="#DejaVuSans-32"/>
       <use xlink:href="#DejaVuSans-30" transform="translate(63.623047 0)"/>
       <use xlink:href="#DejaVuSans-30" transform="translate(127.246094 0)"/>
       <use xlink:href="#DejaVuSans-30" transform="translate(190.869141 0)"/>
      </g>
     </g>
    </g>
    <g id="ytick_4">
     <g id="line2d_17">
      <path d="M 108 222.298473 
L 777.6 222.298473 
" clip-path="url(#p53b0e11ec1)" style="fill: none; stroke-dasharray: 5.12,1.28,0.8,1.28; stroke-dashoffset: 0; stroke: #b0b0b0; stroke-width: 0.8"/>
     </g>
     <g id="line2d_18">
      <g>
       <use xlink:href="#m1c5e16c122" x="108" y="222.298473" style="fill: #a9a9a9; stroke: #a9a9a9; stroke-width: 0.8"/>
      </g>
     </g>
     <g id="text_9">
      <!-- 3000 -->
      <g style="fill: #a9a9a9" transform="translate(75.55 226.097691) scale(0.1 -0.1)">
       <use xlink:href="#DejaVuSans-33"/>
       <use xlink:href="#DejaVuSans-30" transform="translate(63.623047 0)"/>
       <use xlink:href="#DejaVuSans-30" transform="translate(127.246094 0)"/>
       <use xlink:href="#DejaVuSans-30" transform="translate(190.869141 0)"/>
      </g>
     </g>
    </g>
    <g id="ytick_5">
     <g id="line2d_19">
      <path d="M 108 193.78846 
L 777.6 193.78846 
" clip-path="url(#p53b0e11ec1)" style="fill: none; stroke-dasharray: 5.12,1.28,0.8,1.28; stroke-dashoffset: 0; stroke: #b0b0b0; stroke-width: 0.8"/>
     </g>
     <g id="line2d_20">
      <g>
       <use xlink:href="#m1c5e16c122" x="108" y="193.78846" style="fill: #a9a9a9; stroke: #a9a9a9; stroke-width: 0.8"/>
      </g>
     </g>
     <g id="text_10">
      <!-- 4000 -->
      <g style="fill: #a9a9a9" transform="translate(75.55 197.587679) scale(0.1 -0.1)">
       <use xlink:href="#DejaVuSans-34"/>
       <use xlink:href="#DejaVuSans-30" transform="translate(63.623047 0)"/>
       <use xlink:href="#DejaVuSans-30" transform="translate(127.246094 0)"/>
       <use xlink:href="#DejaVuSans-30" transform="translate(190.869141 0)"/>
      </g>
     </g>
    </g>
    <g id="ytick_6">
     <g id="line2d_21">
      <path d="M 108 165.278448 
L 777.6 165.278448 
" clip-path="url(#p53b0e11ec1)" style="fill: none; stroke-dasharray: 5.12,1.28,0.8,1.28; stroke-dashoffset: 0; stroke: #b0b0b0; stroke-width: 0.8"/>
     </g>
     <g id="line2d_22">
      <g>
       <use xlink:href="#m1c5e16c122" x="108" y="165.278448" style="fill: #a9a9a9; stroke: #a9a9a9; stroke-width: 0.8"/>
      </g>
     </g>
     <g id="text_11">
      <!-- 5000 -->
      <g style="fill: #a9a9a9" transform="translate(75.55 169.077667) scale(0.1 -0.1)">
       <use xlink:href="#DejaVuSans-35"/>
       <use xlink:href="#DejaVuSans-30" transform="translate(63.623047 0)"/>
       <use xlink:href="#DejaVuSans-30" transform="translate(127.246094 0)"/>
       <use xlink:href="#DejaVuSans-30" transform="translate(190.869141 0)"/>
      </g>
     </g>
    </g>
    <g id="ytick_7">
     <g id="line2d_23">
      <path d="M 108 136.768435 
L 777.6 136.768435 
" clip-path="url(#p53b0e11ec1)" style="fill: none; stroke-dasharray: 5.12,1.28,0.8,1.28; stroke-dashoffset: 0; stroke: #b0b0b0; stroke-width: 0.8"/>
     </g>
     <g id="line2d_24">
      <g>
       <use xlink:href="#m1c5e16c122" x="108" y="136.768435" style="fill: #a9a9a9; stroke: #a9a9a9; stroke-width: 0.8"/>
      </g>
     </g>
     <g id="text_12">
      <!-- 6000 -->
      <g style="fill: #a9a9a9" transform="translate(75.55 140.567654) scale(0.1 -0.1)">
       <use xlink:href="#DejaVuSans-36"/>
       <use xlink:href="#DejaVuSans-30" transform="translate(63.623047 0)"/>
       <use xlink:href="#DejaVuSans-30" transform="translate(127.246094 0)"/>
       <use xlink:href="#DejaVuSans-30" transform="translate(190.869141 0)"/>
      </g>
     </g>
    </g>
    <g id="ytick_8">
     <g id="line2d_25">
      <path d="M 108 108.258423 
L 777.6 108.258423 
" clip-path="url(#p53b0e11ec1)" style="fill: none; stroke-dasharray: 5.12,1.28,0.8,1.28; stroke-dashoffset: 0; stroke: #b0b0b0; stroke-width: 0.8"/>
     </g>
     <g id="line2d_26">
      <g>
       <use xlink:href="#m1c5e16c122" x="108" y="108.258423" style="fill: #a9a9a9; stroke: #a9a9a9; stroke-width: 0.8"/>
      </g>
     </g>
     <g id="text_13">
      <!-- 7000 -->
      <g style="fill: #a9a9a9" transform="translate(75.55 112.057642) scale(0.1 -0.1)">
       <defs>
        <path id="DejaVuSans-37" d="M 525 4666 
L 3525 4666 
L 3525 4397 
L 1831 0 
L 1172 0 
L 2766 4134 
L 525 4134 
L 525 4666 
z
" transform="scale(0.015625)"/>
       </defs>
       <use xlink:href="#DejaVuSans-37"/>
       <use xlink:href="#DejaVuSans-30" transform="translate(63.623047 0)"/>
       <use xlink:href="#DejaVuSans-30" transform="translate(127.246094 0)"/>
       <use xlink:href="#DejaVuSans-30" transform="translate(190.869141 0)"/>
      </g>
     </g>
    </g>
    <g id="ytick_9">
     <g id="line2d_27">
      <path d="M 108 79.74841 
L 777.6 79.74841 
" clip-path="url(#p53b0e11ec1)" style="fill: none; stroke-dasharray: 5.12,1.28,0.8,1.28; stroke-dashoffset: 0; stroke: #b0b0b0; stroke-width: 0.8"/>
     </g>
     <g id="line2d_28">
      <g>
       <use xlink:href="#m1c5e16c122" x="108" y="79.74841" style="fill: #a9a9a9; stroke: #a9a9a9; stroke-width: 0.8"/>
      </g>
     </g>
     <g id="text_14">
      <!-- 8000 -->
      <g style="fill: #a9a9a9" transform="translate(75.55 83.547629) scale(0.1 -0.1)">
       <defs>
        <path id="DejaVuSans-38" d="M 2034 2216 
Q 1584 2216 1326 1975 
Q 1069 1734 1069 1313 
Q 1069 891 1326 650 
Q 1584 409 2034 409 
Q 2484 409 2743 651 
Q 3003 894 3003 1313 
Q 3003 1734 2745 1975 
Q 2488 2216 2034 2216 
z
M 1403 2484 
Q 997 2584 770 2862 
Q 544 3141 544 3541 
Q 544 4100 942 4425 
Q 1341 4750 2034 4750 
Q 2731 4750 3128 4425 
Q 3525 4100 3525 3541 
Q 3525 3141 3298 2862 
Q 3072 2584 2669 2484 
Q 3125 2378 3379 2068 
Q 3634 1759 3634 1313 
Q 3634 634 3220 271 
Q 2806 -91 2034 -91 
Q 1263 -91 848 271 
Q 434 634 434 1313 
Q 434 1759 690 2068 
Q 947 2378 1403 2484 
z
M 1172 3481 
Q 1172 3119 1398 2916 
Q 1625 2713 2034 2713 
Q 2441 2713 2670 2916 
Q 2900 3119 2900 3481 
Q 2900 3844 2670 4047 
Q 2441 4250 2034 4250 
Q 1625 4250 1398 4047 
Q 1172 3844 1172 3481 
z
" transform="scale(0.015625)"/>
       </defs>
       <use xlink:href="#DejaVuSans-38"/>
       <use xlink:href="#DejaVuSans-30" transform="translate(63.623047 0)"/>
       <use xlink:href="#DejaVuSans-30" transform="translate(127.246094 0)"/>
       <use xlink:href="#DejaVuSans-30" transform="translate(190.869141 0)"/>
      </g>
     </g>
    </g>
    <g id="ytick_10">
     <g id="line2d_29">
      <path d="M 108 51.238398 
L 777.6 51.238398 
" clip-path="url(#p53b0e11ec1)" style="fill: none; stroke-dasharray: 5.12,1.28,0.8,1.28; stroke-dashoffset: 0; stroke: #b0b0b0; stroke-width: 0.8"/>
     </g>
     <g id="line2d_30">
      <g>
       <use xlink:href="#m1c5e16c122" x="108" y="51.238398" style="fill: #a9a9a9; stroke: #a9a9a9; stroke-width: 0.8"/>
      </g>
     </g>
     <g id="text_15">
      <!-- 9000 -->
      <g style="fill: #a9a9a9" transform="translate(75.55 55.037617) scale(0.1 -0.1)">
       <defs>
        <path id="DejaVuSans-39" d="M 703 97 
L 703 672 
Q 941 559 1184 500 
Q 1428 441 1663 441 
Q 2288 441 2617 861 
Q 2947 1281 2994 2138 
Q 2813 1869 2534 1725 
Q 2256 1581 1919 1581 
Q 1219 1581 811 2004 
Q 403 2428 403 3163 
Q 403 3881 828 4315 
Q 1253 4750 1959 4750 
Q 2769 4750 3195 4129 
Q 3622 3509 3622 2328 
Q 3622 1225 3098 567 
Q 2575 -91 1691 -91 
Q 1453 -91 1209 -44 
Q 966 3 703 97 
z
M 1959 2075 
Q 2384 2075 2632 2365 
Q 2881 2656 2881 3163 
Q 2881 3666 2632 3958 
Q 2384 4250 1959 4250 
Q 1534 4250 1286 3958 
Q 1038 3666 1038 3163 
Q 1038 2656 1286 2365 
Q 1534 2075 1959 2075 
z
" transform="scale(0.015625)"/>
       </defs>
       <use xlink:href="#DejaVuSans-39"/>
       <use xlink:href="#DejaVuSans-30" transform="translate(63.623047 0)"/>
       <use xlink:href="#DejaVuSans-30" transform="translate(127.246094 0)"/>
       <use xlink:href="#DejaVuSans-30" transform="translate(190.869141 0)"/>
      </g>
     </g>
    </g>
   </g>
   <g id="line2d_31">
    <path d="M 138.436364 307.74298 
L 140.554904 307.54341 
L 140.907994 307.37235 
L 142.320354 307.17278 
L 143.732715 306.85917 
L 145.145075 306.631089 
L 146.204345 306.574069 
L 146.910525 306.288969 
L 147.263615 305.775789 
L 147.616705 305.519199 
L 147.969795 304.663899 
L 148.322885 304.606879 
L 149.029066 304.150718 
L 149.735246 303.609028 
L 151.147606 302.525648 
L 151.500696 302.383098 
L 152.206876 301.926937 
L 153.266146 301.385247 
L 153.619236 300.786537 
L 154.325417 300.216337 
L 155.031597 299.988257 
L 156.090867 299.817197 
L 158.209407 299.475076 
L 158.562497 299.304016 
L 161.034128 299.075936 
L 162.446488 298.705306 
L 165.271209 298.277656 
L 165.624299 298.078086 
L 165.977389 298.021066 
L 166.683569 297.764476 
L 169.155199 297.308315 
L 169.861379 297.080235 
L 173.03919 296.510035 
L 173.74537 296.338975 
L 175.15773 296.139405 
L 175.863911 295.911325 
L 176.217001 295.369635 
L 177.276271 294.913474 
L 178.335541 294.599864 
L 178.688631 294.400294 
L 179.394811 294.257744 
L 181.160262 293.801584 
L 182.219532 293.544994 
L 183.631892 293.174364 
L 183.984982 293.145854 
L 184.691162 292.803733 
L 185.044252 292.746713 
L 185.397342 292.547143 
L 189.987513 291.720353 
L 191.399873 291.064623 
L 192.106054 290.865053 
L 192.812234 290.551442 
L 193.518414 290.009752 
L 194.577684 289.781672 
L 202.345665 287.329811 
L 202.698756 287.301301 
L 203.758026 286.959181 
L 204.111116 286.959181 
L 204.464206 286.788121 
L 205.170386 286.702591 
L 205.523476 286.560041 
L 207.288926 286.474511 
L 207.642016 286.388981 
L 208.348197 285.98984 
L 209.407467 285.5907 
L 210.113647 285.19156 
L 211.172917 284.70689 
L 212.585277 283.99414 
L 212.938367 283.594999 
L 213.644548 282.397579 
L 214.703818 282.055459 
L 215.056908 281.770359 
L 216.116178 281.371218 
L 216.469268 281.000588 
L 217.528538 280.544428 
L 217.881628 280.344858 
L 220.000169 277.778957 
L 220.706349 277.436837 
L 222.118709 276.410476 
L 222.824889 275.897296 
L 223.177979 275.355606 
L 223.531069 274.471795 
L 223.884159 273.901595 
L 226.0027 272.162484 
L 227.06197 271.193144 
L 227.76815 270.252314 
L 228.82742 269.454033 
L 230.239781 268.541713 
L 230.945961 268.142573 
L 232.358321 267.344292 
L 234.123771 265.576672 
L 234.829951 265.263061 
L 235.536132 264.749881 
L 235.889222 264.521801 
L 236.242312 264.464781 
L 237.301582 263.837561 
L 237.654672 263.409911 
L 239.420122 262.38355 
L 239.773212 262.241 
L 240.832483 261.44272 
L 246.128834 259.389999 
L 246.835014 258.677249 
L 247.894284 258.107048 
L 248.600464 257.622378 
L 249.306644 257.394298 
L 249.659734 257.137708 
L 250.012824 257.023668 
L 251.072094 256.253897 
L 253.190635 255.626677 
L 253.896815 255.170517 
L 254.956085 254.913927 
L 255.309175 254.828397 
L 256.368445 254.030117 
L 257.780806 253.602466 
L 258.486986 253.174816 
L 259.193166 252.861206 
L 260.252436 252.519086 
L 260.958616 252.376536 
L 261.664796 252.062926 
L 264.136427 251.093585 
L 264.842607 251.008055 
L 266.254967 250.437855 
L 270.138958 248.356624 
L 270.845138 248.014504 
L 271.551318 247.672384 
L 272.257498 247.529834 
L 272.963679 247.073673 
L 273.669859 246.874103 
L 274.729129 246.417943 
L 276.141489 246.218373 
L 276.847669 245.819233 
L 277.200759 245.477113 
L 277.553849 244.792872 
L 278.96621 244.365222 
L 280.37857 243.680982 
L 283.556381 242.169951 
L 284.262561 241.998891 
L 285.321831 241.428691 
L 285.674921 241.371671 
L 287.440371 240.430841 
L 288.146551 239.94617 
L 289.205822 239.71809 
L 292.383632 238.57769 
L 293.795992 237.95047 
L 294.149082 237.665369 
L 294.502173 237.551329 
L 295.208353 237.123679 
L 296.973803 236.439439 
L 299.092343 234.814368 
L 299.445433 234.757348 
L 299.798524 234.130128 
L 300.151614 233.987578 
L 300.504704 233.673968 
L 300.857794 233.616948 
L 301.563974 233.132277 
L 302.270154 232.875687 
L 302.976334 232.448037 
L 304.741784 231.279127 
L 306.860325 230.281276 
L 307.213415 229.625546 
L 307.919595 229.055346 
L 308.625775 228.770246 
L 308.978865 228.513655 
L 309.331955 228.428125 
L 310.038135 228.057495 
L 311.450496 227.316235 
L 312.156676 226.660505 
L 312.862856 226.033284 
L 313.569036 225.577124 
L 314.275216 224.892884 
L 314.981396 224.294174 
L 315.334486 224.123113 
L 316.040667 223.353343 
L 317.099937 222.840163 
L 317.806117 222.412513 
L 318.159207 222.298473 
L 318.512297 222.013373 
L 318.865387 221.956353 
L 322.043198 220.245752 
L 322.749378 220.046182 
L 324.161738 219.533001 
L 324.867918 219.048331 
L 326.280278 218.506641 
L 326.986459 218.050481 
L 327.692639 217.765381 
L 328.398819 217.22369 
L 329.104999 215.74117 
L 329.811179 214.885869 
L 330.870449 214.315669 
L 331.576629 214.002059 
L 331.929719 213.945039 
L 332.6359 213.602919 
L 334.40135 212.947189 
L 335.10753 212.462518 
L 336.1668 212.006358 
L 337.932251 210.894468 
L 338.638431 210.210227 
L 339.697701 209.668537 
L 340.403881 209.240887 
L 341.816241 208.414097 
L 342.169331 208.328567 
L 342.522421 208.043466 
L 344.994052 207.188166 
L 345.347142 206.931576 
L 346.053322 206.703496 
L 349.937313 204.736305 
L 350.643493 204.137595 
L 351.349673 203.938025 
L 351.702763 203.595905 
L 352.055853 203.538884 
L 352.762033 202.968684 
L 354.527484 201.856794 
L 355.233664 201.628714 
L 355.586754 201.400634 
L 355.939844 201.343614 
L 358.058384 200.402783 
L 362.295465 199.034303 
L 363.354735 198.264532 
L 364.060915 197.865392 
L 365.473276 197.152642 
L 366.532546 196.411381 
L 367.238726 196.240321 
L 368.297996 195.556081 
L 371.475807 194.415681 
L 372.181987 194.15909 
L 373.594347 193.84548 
L 374.300527 193.6174 
L 376.065978 192.99018 
L 377.125248 192.64806 
L 377.831428 192.477 
L 379.949968 192.077859 
L 380.656148 191.935309 
L 381.715419 191.678719 
L 382.068509 191.507659 
L 382.774689 191.365109 
L 383.480869 191.165539 
L 384.187049 190.823419 
L 384.540139 190.680869 
L 384.893229 190.680869 
L 390.18958 188.913248 
L 390.54267 188.514108 
L 392.661211 187.573278 
L 394.073571 187.060097 
L 394.426661 186.832017 
L 396.192111 186.290327 
L 396.545201 186.033737 
L 396.898291 185.948207 
L 397.251382 185.634597 
L 398.310652 185.406517 
L 399.016832 185.064396 
L 399.369922 184.608236 
L 410.315714 181.871275 
L 411.728074 181.415115 
L 413.140435 180.958955 
L 413.846615 180.645344 
L 414.552795 180.360244 
L 414.905885 180.103654 
L 416.671335 179.561964 
L 418.083695 178.906234 
L 419.496056 178.735174 
L 427.617127 175.542052 
L 429.382578 175.028872 
L 430.088758 174.658242 
L 431.148028 174.401652 
L 432.560388 173.175721 
L 435.032019 172.063831 
L 437.503649 170.95194 
L 438.562919 170.58131 
L 439.622189 170.03962 
L 442.44691 168.557099 
L 443.15309 168.214979 
L 443.50618 167.929879 
L 444.56545 167.473719 
L 445.977811 166.732458 
L 447.390171 166.162258 
L 449.861801 165.221428 
L 450.567981 165.135898 
L 450.921072 164.879308 
L 452.333432 164.594207 
L 453.039612 164.280597 
L 454.805062 163.396787 
L 459.395233 161.258536 
L 460.454503 160.887906 
L 460.807593 160.631316 
L 461.513773 160.545786 
L 461.866864 160.317706 
L 462.573044 160.203666 
L 467.163215 158.464555 
L 468.222485 158.207965 
L 469.634845 157.609254 
L 470.341025 157.210114 
L 471.753385 156.440344 
L 472.459565 156.269284 
L 472.812656 156.041204 
L 473.165746 155.984184 
L 474.931196 155.071863 
L 479.521367 153.275733 
L 479.874457 153.218713 
L 481.286817 152.505962 
L 481.992997 152.363412 
L 482.699177 151.935762 
L 484.111538 151.223012 
L 490.820249 148.40052 
L 491.526429 147.68777 
L 492.585699 147.14608 
L 493.644969 146.83247 
L 493.998059 146.54737 
L 494.70424 146.290779 
L 495.76351 145.549519 
L 496.46969 145.349949 
L 497.17587 144.950809 
L 498.23514 144.694219 
L 504.943852 141.900238 
L 505.650032 141.586627 
L 507.768572 140.788347 
L 509.534022 139.876027 
L 510.240202 139.647947 
L 510.593293 139.305826 
L 511.652563 138.878176 
L 512.005653 138.821156 
L 513.418013 138.136916 
L 514.477283 137.794796 
L 515.536553 137.395656 
L 516.595824 137.082045 
L 516.948914 137.025025 
L 517.655094 136.625885 
L 518.008184 136.483335 
L 518.361274 136.198235 
L 519.420544 135.913135 
L 520.126724 135.628035 
L 520.832904 135.314425 
L 522.245265 134.715714 
L 524.716895 134.088494 
L 525.423075 133.803394 
L 529.660156 132.720014 
L 531.778696 131.408553 
L 532.837967 130.781333 
L 534.956507 130.097092 
L 535.662687 129.669442 
L 538.134318 128.785632 
L 539.193588 128.443512 
L 539.899768 128.044372 
L 540.605948 127.844801 
L 540.959038 127.645231 
L 541.665218 127.502681 
L 543.430669 126.675891 
L 544.136849 126.390791 
L 545.549209 125.820591 
L 545.902299 125.47847 
L 546.255389 125.42145 
L 547.667749 124.82274 
L 549.08011 124.45211 
L 549.4332 124.4236 
L 549.78629 124.25254 
L 550.49247 124.10999 
L 553.670281 123.112139 
L 554.376461 122.541939 
L 555.788821 121.715149 
L 556.848091 121.373029 
L 560.025902 119.776468 
L 560.378992 119.491368 
L 562.497532 118.864148 
L 563.203712 118.579047 
L 564.262982 118.208417 
L 564.616073 117.894807 
L 567.087703 116.982487 
L 568.146973 116.497816 
L 568.500063 116.469306 
L 569.206243 116.184206 
L 570.618604 115.556986 
L 572.737144 115.015296 
L 573.796414 114.530626 
L 576.974225 113.504265 
L 577.680405 113.105125 
L 586.507657 110.311144 
L 586.860747 110.282634 
L 588.273107 109.712434 
L 590.038557 109.341803 
L 591.450918 108.800113 
L 591.804008 108.800113 
L 592.863278 108.543523 
L 593.569458 108.400973 
L 594.275638 108.201403 
L 595.334908 107.631203 
L 596.747269 107.175042 
L 601.337439 105.435932 
L 602.39671 105.065302 
L 604.16216 104.095961 
L 604.86834 104.010431 
L 607.33997 103.297681 
L 608.399241 103.069601 
L 611.223961 102.04324 
L 615.814132 100.247109 
L 616.520312 100.133069 
L 617.226492 99.990519 
L 617.579582 99.990519 
L 618.638853 99.648399 
L 620.404303 99.135219 
L 621.816663 98.650549 
L 626.406834 97.510148 
L 627.466104 96.996968 
L 628.878464 96.540808 
L 633.821725 95.029777 
L 634.174815 95.001267 
L 635.234086 94.602127 
L 635.940266 94.488087 
L 638.411896 93.547256 
L 640.883527 93.062586 
L 642.648977 92.549406 
L 643.002067 92.378346 
L 643.708247 91.751126 
L 646.886058 90.496685 
L 647.592238 90.382645 
L 650.416958 89.441815 
L 651.476229 88.843104 
L 651.829319 88.757574 
L 652.182409 88.472474 
L 653.241679 88.158864 
L 654.654039 87.588664 
L 655.713309 87.075484 
L 656.41949 86.647833 
L 656.77258 86.562303 
L 657.47876 86.163163 
L 660.30348 85.136803 
L 660.65657 84.823193 
L 661.00966 84.766173 
L 661.715841 84.310012 
L 662.775111 83.996402 
L 664.187471 83.397692 
L 664.540561 83.369182 
L 666.306011 82.684942 
L 667.012192 82.542392 
L 667.718372 82.029211 
L 668.071462 82.029211 
L 669.483822 81.516031 
L 670.896182 81.230931 
L 672.308543 80.603711 
L 672.661633 80.603711 
L 675.133263 79.862451 
L 675.839443 79.29225 
L 679.017254 78.12334 
L 680.429614 77.78122 
L 682.901244 77.096979 
L 685.019785 76.355719 
L 686.432145 76.042109 
L 688.903776 75.329359 
L 689.609956 75.186808 
L 692.434676 74.131938 
L 693.140856 73.989388 
L 694.553217 73.732798 
L 695.259397 73.618758 
L 696.671757 73.048558 
L 697.377937 72.848987 
L 698.084117 72.734947 
L 699.496478 72.307297 
L 699.849568 72.307297 
L 700.555748 71.908157 
L 703.733558 71.052857 
L 705.852099 70.112026 
L 706.205189 70.055006 
L 706.911369 69.712886 
L 707.617549 69.399276 
L 708.323729 69.114176 
L 709.029909 68.829076 
L 709.382999 68.629506 
L 709.736089 68.572486 
L 710.44227 68.258875 
L 711.50154 67.802715 
L 713.26699 67.032945 
L 713.62008 66.804865 
L 713.97317 66.719335 
L 714.32626 66.491255 
L 714.67935 66.434235 
L 715.38553 66.006584 
L 717.504071 65.521914 
L 717.857161 65.265324 
L 721.741152 63.925354 
L 722.447332 63.554723 
L 723.859692 62.984523 
L 726.684413 62.186243 
L 728.096773 62.015183 
L 729.156043 61.787103 
L 729.509133 61.730083 
L 730.568403 61.131372 
L 730.921493 61.074352 
L 731.627673 60.760742 
L 732.686944 60.589682 
L 733.393124 60.247562 
L 738.689475 58.166331 
L 739.748745 57.909741 
L 741.867285 57.339541 
L 742.573466 57.311031 
L 745.045096 56.54126 
L 745.398186 56.25616 
L 745.751276 56.19914 
L 746.457456 55.88553 
L 747.163636 55.8 
L 747.163636 55.8 
" clip-path="url(#p53b0e11ec1)" style="fill: none; stroke: #1f77b4; stroke-width: 1.5; stroke-linecap: square"/>
   </g>
   <g id="line2d_32">
    <path d="M 138.789454 307.8 
L 141.967264 307.71447 
L 144.791985 307.57192 
L 146.204345 307.57192 
L 146.910525 307.45788 
L 155.384687 306.85917 
L 158.209407 306.77364 
L 159.974858 306.71662 
L 164.565028 306.631089 
L 166.330479 306.574069 
L 169.508289 306.488539 
L 170.92065 306.460029 
L 174.45155 306.374499 
L 175.863911 306.231949 
L 177.276271 306.203439 
L 179.394811 306.117909 
L 180.807171 306.089399 
L 182.572622 306.032379 
L 183.984982 305.889829 
L 187.162793 305.804299 
L 187.868973 305.747279 
L 189.281333 305.661749 
L 191.399873 305.576219 
L 192.812234 305.490689 
L 199.167855 305.063039 
L 201.639485 304.977509 
L 202.698756 304.863469 
L 204.464206 304.777939 
L 207.995107 304.578369 
L 211.526007 304.521349 
L 212.938367 304.378799 
L 214.703818 304.293268 
L 218.234718 303.922638 
L 220.353259 303.637538 
L 221.765619 303.580518 
L 224.59034 303.209888 
L 226.70888 303.152868 
L 227.76815 303.067338 
L 228.82742 302.981808 
L 247.188104 301.584817 
L 249.659734 301.499287 
L 251.072094 301.328227 
L 252.837545 301.242697 
L 254.956085 301.157167 
L 256.721536 301.071637 
L 258.133896 301.043127 
L 259.899346 300.986107 
L 260.605526 300.900577 
L 265.548787 300.815047 
L 266.254967 300.729517 
L 270.492048 300.643987 
L 273.669859 300.472927 
L 276.141489 300.387397 
L 277.906939 300.187827 
L 280.02548 300.102297 
L 281.08475 299.959747 
L 286.028011 299.874217 
L 287.440371 299.731666 
L 288.852731 299.703156 
L 289.912002 299.617626 
L 291.324362 299.475076 
L 294.855263 299.275506 
L 298.386163 299.189976 
L 301.563974 299.018916 
L 302.623244 298.990406 
L 303.329424 298.876366 
L 305.094874 298.819346 
L 305.801055 298.762326 
L 307.566505 298.676796 
L 308.978865 298.648286 
L 311.450496 298.562756 
L 320.630837 297.907026 
L 322.749378 297.821496 
L 324.514828 297.764476 
L 329.458089 297.678946 
L 330.164269 297.593416 
L 335.10753 297.507886 
L 338.638431 297.308315 
L 339.344611 297.279805 
L 340.050791 297.194275 
L 341.816241 297.108745 
L 343.581692 297.051725 
L 345.347142 296.966195 
L 347.112592 296.909175 
L 350.290403 296.823645 
L 352.408943 296.738115 
L 357.352204 296.652585 
L 361.236195 296.424505 
L 362.648555 296.367485 
L 363.707825 296.281955 
L 368.651086 296.196425 
L 370.769627 296.110895 
L 382.068509 296.025365 
L 384.893229 295.882815 
L 393.014301 295.797285 
L 393.720481 295.740265 
L 399.723012 295.683245 
L 400.429192 295.626225 
L 415.965155 295.540695 
L 417.730605 295.483675 
L 427.970217 295.398145 
L 431.854208 295.170064 
L 433.972748 295.084534 
L 436.091289 294.999004 
L 439.622189 294.913474 
L 442.09382 294.799434 
L 444.91854 294.713904 
L 447.743261 294.571354 
L 454.451972 294.485824 
L 456.570513 294.400294 
L 460.454503 294.314764 
L 462.926134 294.200724 
L 465.397764 294.143704 
L 466.103944 294.086684 
L 474.578106 294.001154 
L 478.109007 293.801584 
L 480.933727 293.716054 
L 481.992997 293.573504 
L 485.523898 293.487974 
L 487.289348 293.430954 
L 490.820249 293.345424 
L 492.585699 293.145854 
L 496.1166 293.060324 
L 496.82278 292.974794 
L 500.353681 292.889263 
L 502.119131 292.832243 
L 506.003122 292.803733 
L 506.709302 292.718203 
L 510.593293 292.632673 
L 511.299473 292.575653 
L 519.067454 292.490123 
L 521.185995 292.404593 
L 526.482345 292.319063 
L 527.894706 292.290553 
L 531.072516 292.262043 
L 531.778696 292.176513 
L 536.368867 292.090983 
L 538.134318 292.033963 
L 544.489939 291.976943 
L 545.549209 291.891413 
L 546.608479 291.805883 
L 547.667749 291.720353 
L 552.9641 291.634823 
L 555.082641 291.549293 
L 565.322253 291.463763 
L 568.500063 291.292703 
L 573.443324 291.207173 
L 574.855684 291.178663 
L 579.092765 291.093133 
L 580.858216 291.036113 
L 588.979287 290.950583 
L 591.097827 290.865053 
L 597.100359 290.779523 
L 598.512719 290.751013 
L 602.043619 290.665483 
L 604.51525 290.551442 
L 608.399241 290.465912 
L 610.870871 290.351872 
L 614.048682 290.294852 
L 614.754862 290.237832 
L 622.522843 290.152302 
L 624.641384 290.066772 
L 627.113014 289.981242 
L 628.878464 289.924222 
L 639.118076 289.838692 
L 641.236617 289.753162 
L 647.239148 289.667632 
L 649.004598 289.610612 
L 653.594769 289.525082 
L 655.713309 289.439552 
L 658.53803 289.354022 
L 660.65657 289.268492 
L 674.780173 289.182962 
L 677.251803 289.068922 
L 685.725965 288.983392 
L 687.138325 288.954882 
L 695.612487 288.869352 
L 697.377937 288.812332 
L 708.676819 288.726802 
L 710.089179 288.698292 
L 720.681881 288.612762 
L 722.447332 288.555742 
L 733.040034 288.470212 
L 735.158574 288.384682 
L 747.163636 288.299151 
L 747.163636 288.299151 
" clip-path="url(#p53b0e11ec1)" style="fill: none; stroke: #ff7f0e; stroke-width: 1.5; stroke-linecap: square"/>
   </g>
   <g id="patch_3">
    <path d="M 108 320.4 
L 108 43.2 
" style="fill: none; stroke: #a9a9a9; stroke-width: 0.8; stroke-linejoin: miter; stroke-linecap: square"/>
   </g>
   <g id="patch_4">
    <path d="M 777.6 320.4 
L 777.6 43.2 
" style="fill: none"/>
   </g>
   <g id="patch_5">
    <path d="M 108 320.4 
L 777.6 320.4 
" style="fill: none; stroke: #a9a9a9; stroke-width: 0.8; stroke-linejoin: miter; stroke-linecap: square"/>
   </g>
   <g id="patch_6">
    <path d="M 108 43.2 
L 777.6 43.2 
" style="fill: none"/>
   </g>
   <g id="text_16">
    <!-- get_subscribe history -->
    <g style="fill: #a9a9a9" transform="translate(378.6075 37.2) scale(0.12 -0.12)">
     <defs>
      <path id="DejaVuSans-67" d="M 2906 1791 
Q 2906 2416 2648 2759 
Q 2391 3103 1925 3103 
Q 1463 3103 1205 2759 
Q 947 2416 947 1791 
Q 947 1169 1205 825 
Q 1463 481 1925 481 
Q 2391 481 2648 825 
Q 2906 1169 2906 1791 
z
M 3481 434 
Q 3481 -459 3084 -895 
Q 2688 -1331 1869 -1331 
Q 1566 -1331 1297 -1286 
Q 1028 -1241 775 -1147 
L 775 -588 
Q 1028 -725 1275 -790 
Q 1522 -856 1778 -856 
Q 2344 -856 2625 -561 
Q 2906 -266 2906 331 
L 2906 616 
Q 2728 306 2450 153 
Q 2172 0 1784 0 
Q 1141 0 747 490 
Q 353 981 353 1791 
Q 353 2603 747 3093 
Q 1141 3584 1784 3584 
Q 2172 3584 2450 3431 
Q 2728 3278 2906 2969 
L 2906 3500 
L 3481 3500 
L 3481 434 
z
" transform="scale(0.015625)"/>
      <path id="DejaVuSans-65" d="M 3597 1894 
L 3597 1613 
L 953 1613 
Q 991 1019 1311 708 
Q 1631 397 2203 397 
Q 2534 397 2845 478 
Q 3156 559 3463 722 
L 3463 178 
Q 3153 47 2828 -22 
Q 2503 -91 2169 -91 
Q 1331 -91 842 396 
Q 353 884 353 1716 
Q 353 2575 817 3079 
Q 1281 3584 2069 3584 
Q 2775 3584 3186 3129 
Q 3597 2675 3597 1894 
z
M 3022 2063 
Q 3016 2534 2758 2815 
Q 2500 3097 2075 3097 
Q 1594 3097 1305 2825 
Q 1016 2553 972 2059 
L 3022 2063 
z
" transform="scale(0.015625)"/>
      <path id="DejaVuSans-74" d="M 1172 4494 
L 1172 3500 
L 2356 3500 
L 2356 3053 
L 1172 3053 
L 1172 1153 
Q 1172 725 1289 603 
Q 1406 481 1766 481 
L 2356 481 
L 2356 0 
L 1766 0 
Q 1100 0 847 248 
Q 594 497 594 1153 
L 594 3053 
L 172 3053 
L 172 3500 
L 594 3500 
L 594 4494 
L 1172 4494 
z
" transform="scale(0.015625)"/>
      <path id="DejaVuSans-5f" d="M 3263 -1063 
L 3263 -1509 
L -63 -1509 
L -63 -1063 
L 3263 -1063 
z
" transform="scale(0.015625)"/>
      <path id="DejaVuSans-73" d="M 2834 3397 
L 2834 2853 
Q 2591 2978 2328 3040 
Q 2066 3103 1784 3103 
Q 1356 3103 1142 2972 
Q 928 2841 928 2578 
Q 928 2378 1081 2264 
Q 1234 2150 1697 2047 
L 1894 2003 
Q 2506 1872 2764 1633 
Q 3022 1394 3022 966 
Q 3022 478 2636 193 
Q 2250 -91 1575 -91 
Q 1294 -91 989 -36 
Q 684 19 347 128 
L 347 722 
Q 666 556 975 473 
Q 1284 391 1588 391 
Q 1994 391 2212 530 
Q 2431 669 2431 922 
Q 2431 1156 2273 1281 
Q 2116 1406 1581 1522 
L 1381 1569 
Q 847 1681 609 1914 
Q 372 2147 372 2553 
Q 372 3047 722 3315 
Q 1072 3584 1716 3584 
Q 2034 3584 2315 3537 
Q 2597 3491 2834 3397 
z
" transform="scale(0.015625)"/>
      <path id="DejaVuSans-75" d="M 544 1381 
L 544 3500 
L 1119 3500 
L 1119 1403 
Q 1119 906 1312 657 
Q 1506 409 1894 409 
Q 2359 409 2629 706 
Q 2900 1003 2900 1516 
L 2900 3500 
L 3475 3500 
L 3475 0 
L 2900 0 
L 2900 538 
Q 2691 219 2414 64 
Q 2138 -91 1772 -91 
Q 1169 -91 856 284 
Q 544 659 544 1381 
z
M 1991 3584 
L 1991 3584 
z
" transform="scale(0.015625)"/>
      <path id="DejaVuSans-62" d="M 3116 1747 
Q 3116 2381 2855 2742 
Q 2594 3103 2138 3103 
Q 1681 3103 1420 2742 
Q 1159 2381 1159 1747 
Q 1159 1113 1420 752 
Q 1681 391 2138 391 
Q 2594 391 2855 752 
Q 3116 1113 3116 1747 
z
M 1159 2969 
Q 1341 3281 1617 3432 
Q 1894 3584 2278 3584 
Q 2916 3584 3314 3078 
Q 3713 2572 3713 1747 
Q 3713 922 3314 415 
Q 2916 -91 2278 -91 
Q 1894 -91 1617 61 
Q 1341 213 1159 525 
L 1159 0 
L 581 0 
L 581 4863 
L 1159 4863 
L 1159 2969 
z
" transform="scale(0.015625)"/>
      <path id="DejaVuSans-63" d="M 3122 3366 
L 3122 2828 
Q 2878 2963 2633 3030 
Q 2388 3097 2138 3097 
Q 1578 3097 1268 2742 
Q 959 2388 959 1747 
Q 959 1106 1268 751 
Q 1578 397 2138 397 
Q 2388 397 2633 464 
Q 2878 531 3122 666 
L 3122 134 
Q 2881 22 2623 -34 
Q 2366 -91 2075 -91 
Q 1284 -91 818 406 
Q 353 903 353 1747 
Q 353 2603 823 3093 
Q 1294 3584 2113 3584 
Q 2378 3584 2631 3529 
Q 2884 3475 3122 3366 
z
" transform="scale(0.015625)"/>
      <path id="DejaVuSans-72" d="M 2631 2963 
Q 2534 3019 2420 3045 
Q 2306 3072 2169 3072 
Q 1681 3072 1420 2755 
Q 1159 2438 1159 1844 
L 1159 0 
L 581 0 
L 581 3500 
L 1159 3500 
L 1159 2956 
Q 1341 3275 1631 3429 
Q 1922 3584 2338 3584 
Q 2397 3584 2469 3576 
Q 2541 3569 2628 3553 
L 2631 2963 
z
" transform="scale(0.015625)"/>
      <path id="DejaVuSans-69" d="M 603 3500 
L 1178 3500 
L 1178 0 
L 603 0 
L 603 3500 
z
M 603 4863 
L 1178 4863 
L 1178 4134 
L 603 4134 
L 603 4863 
z
" transform="scale(0.015625)"/>
      <path id="DejaVuSans-20" transform="scale(0.015625)"/>
      <path id="DejaVuSans-68" d="M 3513 2113 
L 3513 0 
L 2938 0 
L 2938 2094 
Q 2938 2591 2744 2837 
Q 2550 3084 2163 3084 
Q 1697 3084 1428 2787 
Q 1159 2491 1159 1978 
L 1159 0 
L 581 0 
L 581 4863 
L 1159 4863 
L 1159 2956 
Q 1366 3272 1645 3428 
Q 1925 3584 2291 3584 
Q 2894 3584 3203 3211 
Q 3513 2838 3513 2113 
z
" transform="scale(0.015625)"/>
      <path id="DejaVuSans-6f" d="M 1959 3097 
Q 1497 3097 1228 2736 
Q 959 2375 959 1747 
Q 959 1119 1226 758 
Q 1494 397 1959 397 
Q 2419 397 2687 759 
Q 2956 1122 2956 1747 
Q 2956 2369 2687 2733 
Q 2419 3097 1959 3097 
z
M 1959 3584 
Q 2709 3584 3137 3096 
Q 3566 2609 3566 1747 
Q 3566 888 3137 398 
Q 2709 -91 1959 -91 
Q 1206 -91 779 398 
Q 353 888 353 1747 
Q 353 2609 779 3096 
Q 1206 3584 1959 3584 
z
" transform="scale(0.015625)"/>
      <path id="DejaVuSans-79" d="M 2059 -325 
Q 1816 -950 1584 -1140 
Q 1353 -1331 966 -1331 
L 506 -1331 
L 506 -850 
L 844 -850 
Q 1081 -850 1212 -737 
Q 1344 -625 1503 -206 
L 1606 56 
L 191 3500 
L 800 3500 
L 1894 763 
L 2988 3500 
L 3597 3500 
L 2059 -325 
z
" transform="scale(0.015625)"/>
     </defs>
     <use xlink:href="#DejaVuSans-67"/>
     <use xlink:href="#DejaVuSans-65" transform="translate(63.476562 0)"/>
     <use xlink:href="#DejaVuSans-74" transform="translate(125 0)"/>
     <use xlink:href="#DejaVuSans-5f" transform="translate(164.208984 0)"/>
     <use xlink:href="#DejaVuSans-73" transform="translate(214.208984 0)"/>
     <use xlink:href="#DejaVuSans-75" transform="translate(266.308594 0)"/>
     <use xlink:href="#DejaVuSans-62" transform="translate(329.6875 0)"/>
     <use xlink:href="#DejaVuSans-73" transform="translate(393.164062 0)"/>
     <use xlink:href="#DejaVuSans-63" transform="translate(445.263672 0)"/>
     <use xlink:href="#DejaVuSans-72" transform="translate(500.244141 0)"/>
     <use xlink:href="#DejaVuSans-69" transform="translate(541.357422 0)"/>
     <use xlink:href="#DejaVuSans-62" transform="translate(569.140625 0)"/>
     <use xlink:href="#DejaVuSans-65" transform="translate(632.617188 0)"/>
     <use xlink:href="#DejaVuSans-20" transform="translate(694.140625 0)"/>
     <use xlink:href="#DejaVuSans-68" transform="translate(725.927734 0)"/>
     <use xlink:href="#DejaVuSans-69" transform="translate(789.306641 0)"/>
     <use xlink:href="#DejaVuSans-73" transform="translate(817.089844 0)"/>
     <use xlink:href="#DejaVuSans-74" transform="translate(869.189453 0)"/>
     <use xlink:href="#DejaVuSans-6f" transform="translate(908.398438 0)"/>
     <use xlink:href="#DejaVuSans-72" transform="translate(969.580078 0)"/>
     <use xlink:href="#DejaVuSans-79" transform="translate(1010.693359 0)"/>
    </g>
   </g>
   <g id="legend_1">
    <g id="line2d_33">
     <path d="M 815.08 328.498438 
L 825.08 328.498438 
L 835.08 328.498438 
" style="fill: none; stroke: #1f77b4; stroke-width: 1.5; stroke-linecap: square"/>
    </g>
    <g id="text_17">
     <!-- star -->
     <g style="fill: #a9a9a9" transform="translate(843.08 331.998438) scale(0.1 -0.1)">
      <defs>
       <path id="DejaVuSans-61" d="M 2194 1759 
Q 1497 1759 1228 1600 
Q 959 1441 959 1056 
Q 959 750 1161 570 
Q 1363 391 1709 391 
Q 2188 391 2477 730 
Q 2766 1069 2766 1631 
L 2766 1759 
L 2194 1759 
z
M 3341 1997 
L 3341 0 
L 2766 0 
L 2766 531 
Q 2569 213 2275 61 
Q 1981 -91 1556 -91 
Q 1019 -91 701 211 
Q 384 513 384 1019 
Q 384 1609 779 1909 
Q 1175 2209 1959 2209 
L 2766 2209 
L 2766 2266 
Q 2766 2663 2505 2880 
Q 2244 3097 1772 3097 
Q 1472 3097 1187 3025 
Q 903 2953 641 2809 
L 641 3341 
Q 956 3463 1253 3523 
Q 1550 3584 1831 3584 
Q 2591 3584 2966 3190 
Q 3341 2797 3341 1997 
z
" transform="scale(0.015625)"/>
      </defs>
      <use xlink:href="#DejaVuSans-73"/>
      <use xlink:href="#DejaVuSans-74" transform="translate(52.099609 0)"/>
      <use xlink:href="#DejaVuSans-61" transform="translate(91.308594 0)"/>
      <use xlink:href="#DejaVuSans-72" transform="translate(152.587891 0)"/>
     </g>
    </g>
    <g id="line2d_34">
     <path d="M 815.08 343.176562 
L 825.08 343.176562 
L 835.08 343.176562 
" style="fill: none; stroke: #ff7f0e; stroke-width: 1.5; stroke-linecap: square"/>
    </g>
    <g id="text_18">
     <!-- fork -->
     <g style="fill: #a9a9a9" transform="translate(843.08 346.676562) scale(0.1 -0.1)">
      <defs>
       <path id="DejaVuSans-66" d="M 2375 4863 
L 2375 4384 
L 1825 4384 
Q 1516 4384 1395 4259 
Q 1275 4134 1275 3809 
L 1275 3500 
L 2222 3500 
L 2222 3053 
L 1275 3053 
L 1275 0 
L 697 0 
L 697 3053 
L 147 3053 
L 147 3500 
L 697 3500 
L 697 3744 
Q 697 4328 969 4595 
Q 1241 4863 1831 4863 
L 2375 4863 
z
" transform="scale(0.015625)"/>
       <path id="DejaVuSans-6b" d="M 581 4863 
L 1159 4863 
L 1159 1991 
L 2875 3500 
L 3609 3500 
L 1753 1863 
L 3688 0 
L 2938 0 
L 1159 1709 
L 1159 0 
L 581 0 
L 581 4863 
z
" transform="scale(0.015625)"/>
      </defs>
      <use xlink:href="#DejaVuSans-66"/>
      <use xlink:href="#DejaVuSans-6f" transform="translate(35.205078 0)"/>
      <use xlink:href="#DejaVuSans-72" transform="translate(96.386719 0)"/>
      <use xlink:href="#DejaVuSans-6b" transform="translate(137.5 0)"/>
     </g>
    </g>
   </g>
  </g>
 </g>
 <defs>
  <clipPath id="p53b0e11ec1">
   <rect x="108" y="43.2" width="669.6" height="277.2"/>
  </clipPath>
 </defs>
</svg>
